<svg width="102" height="66" viewBox="0 0 102 66" fill="none" xmlns="http://www.w3.org/2000/svg">
<path d="M37.284 38.6809C45.3919 38.6809 51.9649 32.108 51.9649 24C51.9649 15.8916 45.3919 9.3186 37.284 9.3186C29.1755 9.3186 22.6025 15.8916 22.6025 24C22.6025 32.108 29.1755 38.6809 37.284 38.6809Z" fill="url(#paint0_radial_1703_18389)"/>
<path d="M37.284 38.6809C45.3919 38.6809 51.9649 32.108 51.9649 24C51.9649 15.8916 45.3919 9.3186 37.284 9.3186C29.1755 9.3186 22.6025 15.8916 22.6025 24C22.6025 32.108 29.1755 38.6809 37.284 38.6809Z" fill="url(#paint1_radial_1703_18389)"/>
<g filter="url(#filter0_i_1703_18389)">
<path d="M91.9032 9.30052C78.9772 -3.29759 58.2954 -3.07915 45.6968 9.84689C42.4369 13.1712 40.064 17.0108 38.5019 21.111C38.2069 21.8851 37.2517 22.1893 36.5532 21.7451C35.5239 21.0907 34.4375 20.5153 33.3166 20.042C30.3309 18.6586 27.0173 17.8938 23.5221 17.8938C10.5229 17.8938 0 28.4169 0 41.4155C0 46.95 1.9298 52.0481 5.13423 56.0897C9.46696 61.77 16.2758 65.411 23.959 65.411C33.2076 65.411 59.7882 65.411 70.1654 65.411C80.4332 65.411 89.4998 60.3498 95.0347 52.594C104.939 39.6316 103.883 20.989 91.9032 9.30052Z" fill="#D5D4DA"/>
<path d="M91.9032 9.30052C78.9772 -3.29759 58.2954 -3.07915 45.6968 9.84689C42.4369 13.1712 40.064 17.0108 38.5019 21.111C38.2069 21.8851 37.2517 22.1893 36.5532 21.7451C35.5239 21.0907 34.4375 20.5153 33.3166 20.042C30.3309 18.6586 27.0173 17.8938 23.5221 17.8938C10.5229 17.8938 0 28.4169 0 41.4155C0 46.95 1.9298 52.0481 5.13423 56.0897C9.46696 61.77 16.2758 65.411 23.959 65.411C33.2076 65.411 59.7882 65.411 70.1654 65.411C80.4332 65.411 89.4998 60.3498 95.0347 52.594C104.939 39.6316 103.883 20.989 91.9032 9.30052Z" fill="url(#paint2_linear_1703_18389)"/>
</g>
<path d="M91.9032 9.30052C78.9772 -3.29759 58.2954 -3.07915 45.6968 9.84689C42.4369 13.1712 40.064 17.0108 38.5019 21.111C38.2069 21.8851 37.2517 22.1893 36.5532 21.7451C35.5239 21.0907 34.4375 20.5153 33.3166 20.042C30.3309 18.6586 27.0173 17.8938 23.5221 17.8938C10.5229 17.8938 0 28.4169 0 41.4155C0 46.95 1.9298 52.0481 5.13423 56.0897C9.46696 61.77 16.2758 65.411 23.959 65.411C33.2076 65.411 59.7882 65.411 70.1654 65.411C80.4332 65.411 89.4998 60.3498 95.0347 52.594C104.939 39.6316 103.883 20.989 91.9032 9.30052Z" fill="url(#paint3_radial_1703_18389)"/>
<path d="M91.9032 9.30052C78.9772 -3.29759 58.2954 -3.07915 45.6968 9.84689C42.4369 13.1712 40.064 17.0108 38.5019 21.111C38.2069 21.8851 37.2517 22.1893 36.5532 21.7451C35.5239 21.0907 34.4375 20.5153 33.3166 20.042C30.3309 18.6586 27.0173 17.8938 23.5221 17.8938C10.5229 17.8938 0 28.4169 0 41.4155C0 46.95 1.9298 52.0481 5.13423 56.0897C9.46696 61.77 16.2758 65.411 23.959 65.411C33.2076 65.411 59.7882 65.411 70.1654 65.411C80.4332 65.411 89.4998 60.3498 95.0347 52.594C104.939 39.6316 103.883 20.989 91.9032 9.30052Z" fill="url(#paint4_radial_1703_18389)"/>
<path d="M91.9032 9.30052C78.9772 -3.29759 58.2954 -3.07915 45.6968 9.84689C42.4369 13.1712 40.064 17.0108 38.5019 21.111C38.2069 21.8851 37.2517 22.1893 36.5532 21.7451C35.5239 21.0907 34.4375 20.5153 33.3166 20.042C30.3309 18.6586 27.0173 17.8938 23.5221 17.8938C10.5229 17.8938 0 28.4169 0 41.4155C0 46.95 1.9298 52.0481 5.13423 56.0897C9.46696 61.77 16.2758 65.411 23.959 65.411C33.2076 65.411 59.7882 65.411 70.1654 65.411C80.4332 65.411 89.4998 60.3498 95.0347 52.594C104.939 39.6316 103.883 20.989 91.9032 9.30052Z" fill="url(#paint5_radial_1703_18389)"/>
<path d="M91.9032 9.30052C78.9772 -3.29759 58.2954 -3.07915 45.6968 9.84689C42.4369 13.1712 40.064 17.0108 38.5019 21.111C38.2069 21.8851 37.2517 22.1893 36.5532 21.7451C35.5239 21.0907 34.4375 20.5153 33.3166 20.042C30.3309 18.6586 27.0173 17.8938 23.5221 17.8938C10.5229 17.8938 0 28.4169 0 41.4155C0 46.95 1.9298 52.0481 5.13423 56.0897C9.46696 61.77 16.2758 65.411 23.959 65.411C33.2076 65.411 59.7882 65.411 70.1654 65.411C80.4332 65.411 89.4998 60.3498 95.0347 52.594C104.939 39.6316 103.883 20.989 91.9032 9.30052Z" fill="url(#paint6_radial_1703_18389)"/>
<defs>
<filter id="filter0_i_1703_18389" x="0" y="-1" width="101.75" height="66.4109" filterUnits="userSpaceOnUse" color-interpolation-filters="sRGB">
<feFlood flood-opacity="0" result="BackgroundImageFix"/>
<feBlend mode="normal" in="SourceGraphic" in2="BackgroundImageFix" result="shape"/>
<feColorMatrix in="SourceAlpha" type="matrix" values="0 0 0 0 0 0 0 0 0 0 0 0 0 0 0 0 0 0 127 0" result="hardAlpha"/>
<feOffset dy="-1"/>
<feGaussianBlur stdDeviation="1"/>
<feComposite in2="hardAlpha" operator="arithmetic" k2="-1" k3="1"/>
<feColorMatrix type="matrix" values="0 0 0 0 0.815686 0 0 0 0 0.784314 0 0 0 0 0.956863 0 0 0 1 0"/>
<feBlend mode="normal" in2="shape" result="effect1_innerShadow_1703_18389"/>
</filter>
<radialGradient id="paint0_radial_1703_18389" cx="0" cy="0" r="1" gradientUnits="userSpaceOnUse" gradientTransform="translate(42.5767 18.5527) rotate(-172.463) scale(20.1482 20.1482)">
<stop offset="0.308752" stop-color="#E8E8E9"/>
<stop offset="1" stop-color="#D2D2D2"/>
</radialGradient>
<radialGradient id="paint1_radial_1703_18389" cx="0" cy="0" r="1" gradientUnits="userSpaceOnUse" gradientTransform="translate(38.8528 22.7576) rotate(-141.242) scale(10.9378 10.0215)">
<stop stop-color="#CDCDCE"/>
<stop offset="1" stop-color="#CDCDCE" stop-opacity="0"/>
</radialGradient>
<linearGradient id="paint2_linear_1703_18389" x1="61.2699" y1="61.894" x2="61.2699" y2="34.5922" gradientUnits="userSpaceOnUse">
<stop stop-color="#DED7FA"/>
<stop offset="1" stop-color="#DED7FA" stop-opacity="0"/>
</linearGradient>
<radialGradient id="paint3_radial_1703_18389" cx="0" cy="0" r="1" gradientUnits="userSpaceOnUse" gradientTransform="translate(88.5712 21.9916) rotate(136.5) scale(40.5332 43.48)">
<stop offset="0.178875" stop-color="#FCFBFE"/>
<stop offset="1" stop-color="#FCFBFE" stop-opacity="0"/>
</radialGradient>
<radialGradient id="paint4_radial_1703_18389" cx="0" cy="0" r="1" gradientUnits="userSpaceOnUse" gradientTransform="translate(24.1973 37.5333) rotate(144.444) scale(24.8668 26.0567)">
<stop stop-color="#FCFBFE"/>
<stop offset="1" stop-color="#FCFBFE" stop-opacity="0"/>
</radialGradient>
<radialGradient id="paint5_radial_1703_18389" cx="0" cy="0" r="1" gradientUnits="userSpaceOnUse" gradientTransform="translate(84.3557 30.7666) rotate(166.654) scale(86.6973 68.277)">
<stop offset="0.815422" stop-color="#CECCD7" stop-opacity="0"/>
<stop offset="1" stop-color="#CECCD7"/>
</radialGradient>
<radialGradient id="paint6_radial_1703_18389" cx="0" cy="0" r="1" gradientUnits="userSpaceOnUse" gradientTransform="translate(13.2432 69.1107) rotate(-46.7899) scale(23.4878 32.4138)">
<stop stop-color="#D0C9EE"/>
<stop offset="1" stop-color="#D0C9EE" stop-opacity="0"/>
</radialGradient>
</defs>
</svg>
