<svg width="120" height="125" viewBox="0 0 120 125" fill="none" xmlns="http://www.w3.org/2000/svg">
<path d="M48.919 5.27704C55.6974 -2.35313 64.9136 -1.13875 70.8108 5.27704L74.4073 9.44097C75.6527 10.7958 77.455 11.4984 79.2884 11.344L85.6826 9.44097C94.398 7.57264 102.317 14.0745 102.317 24.1733V27.9776C102.503 30.0545 104.317 31.4621 106.19 32.3771L111.967 34.7907C120.323 38.8716 122.411 48.5552 116.324 56.683L114.595 58.9654C113.044 61.0623 113.363 63.8145 114.906 65.9167L116.636 68.3381C122.93 76.0847 119.381 86.7133 110.49 90.4265L105.517 92.5035C103.644 93.2858 102.91 94.6285 102.56 96.628L102.214 103.13C101.003 112.053 93.0785 116.083 86.7201 115.182L79.146 113.159C77.3267 112.902 75.0651 113.505 73.8547 115.408L71.1223 119.143C64.3439 126.786 55.1946 125.515 50.579 121.045L45.5391 114.941C44.2191 113.662 42.5553 112.572 40.564 113.323L32.9409 115.408C26.6474 116.298 19.2367 111.461 18.0506 105.216L17.1703 96.1785C16.8131 94.2977 15.5726 92.7031 13.8372 91.8947L8.48965 90.057C0.448203 86.3098 -2.24521 77.2375 2.37199 69.6619L5.38602 65.4938C6.59667 63.5074 6.53912 60.9978 5.23867 59.0691L2.99069 55.8872C-3.37279 46.826 1.02689 36.6982 10.4565 33.6621L12.5362 32.9923C14.8317 32.2531 17.049 30.3471 17.2397 27.943L17.7029 22.1074C18.4546 12.6351 27.098 7.19977 36.1893 9.96352L39.1317 10.858C41.9673 11.9647 44.1891 11.0222 45.7372 9.33625L48.919 5.27704Z" fill="url(#paint0_linear_1703_18388)"/>
<path d="M48.919 5.27704C55.6974 -2.35313 64.9136 -1.13875 70.8108 5.27704L74.4073 9.44097C75.6527 10.7958 77.455 11.4984 79.2884 11.344L85.6826 9.44097C94.398 7.57264 102.317 14.0745 102.317 24.1733V27.9776C102.503 30.0545 104.317 31.4621 106.19 32.3771L111.967 34.7907C120.323 38.8716 122.411 48.5552 116.324 56.683L114.595 58.9654C113.044 61.0623 113.363 63.8145 114.906 65.9167L116.636 68.3381C122.93 76.0847 119.381 86.7133 110.49 90.4265L105.517 92.5035C103.644 93.2858 102.91 94.6285 102.56 96.628L102.214 103.13C101.003 112.053 93.0785 116.083 86.7201 115.182L79.146 113.159C77.3267 112.902 75.0651 113.505 73.8547 115.408L71.1223 119.143C64.3439 126.786 55.1946 125.515 50.579 121.045L45.5391 114.941C44.2191 113.662 42.5553 112.572 40.564 113.323L32.9409 115.408C26.6474 116.298 19.2367 111.461 18.0506 105.216L17.1703 96.1785C16.8131 94.2977 15.5726 92.7031 13.8372 91.8947L8.48965 90.057C0.448203 86.3098 -2.24521 77.2375 2.37199 69.6619L5.38602 65.4938C6.59667 63.5074 6.53912 60.9978 5.23867 59.0691L2.99069 55.8872C-3.37279 46.826 1.02689 36.6982 10.4565 33.6621L12.5362 32.9923C14.8317 32.2531 17.049 30.3471 17.2397 27.943L17.7029 22.1074C18.4546 12.6351 27.098 7.19977 36.1893 9.96352L39.1317 10.858C41.9673 11.9647 44.1891 11.0222 45.7372 9.33625L48.919 5.27704Z" fill="url(#paint1_radial_1703_18388)"/>
<path d="M48.919 5.27704C55.6974 -2.35313 64.9136 -1.13875 70.8108 5.27704L74.4073 9.44097C75.6527 10.7958 77.455 11.4984 79.2884 11.344L85.6826 9.44097C94.398 7.57264 102.317 14.0745 102.317 24.1733V27.9776C102.503 30.0545 104.317 31.4621 106.19 32.3771L111.967 34.7907C120.323 38.8716 122.411 48.5552 116.324 56.683L114.595 58.9654C113.044 61.0623 113.363 63.8145 114.906 65.9167L116.636 68.3381C122.93 76.0847 119.381 86.7133 110.49 90.4265L105.517 92.5035C103.644 93.2858 102.91 94.6285 102.56 96.628L102.214 103.13C101.003 112.053 93.0785 116.083 86.7201 115.182L79.146 113.159C77.3267 112.902 75.0651 113.505 73.8547 115.408L71.1223 119.143C64.3439 126.786 55.1946 125.515 50.579 121.045L45.5391 114.941C44.2191 113.662 42.5553 112.572 40.564 113.323L32.9409 115.408C26.6474 116.298 19.2367 111.461 18.0506 105.216L17.1703 96.1785C16.8131 94.2977 15.5726 92.7031 13.8372 91.8947L8.48965 90.057C0.448203 86.3098 -2.24521 77.2375 2.37199 69.6619L5.38602 65.4938C6.59667 63.5074 6.53912 60.9978 5.23867 59.0691L2.99069 55.8872C-3.37279 46.826 1.02689 36.6982 10.4565 33.6621L12.5362 32.9923C14.8317 32.2531 17.049 30.3471 17.2397 27.943L17.7029 22.1074C18.4546 12.6351 27.098 7.19977 36.1893 9.96352L39.1317 10.858C41.9673 11.9647 44.1891 11.0222 45.7372 9.33625L48.919 5.27704Z" fill="url(#paint2_radial_1703_18388)"/>
<path d="M48.919 5.27704C55.6974 -2.35313 64.9136 -1.13875 70.8108 5.27704L74.4073 9.44097C75.6527 10.7958 77.455 11.4984 79.2884 11.344L85.6826 9.44097C94.398 7.57264 102.317 14.0745 102.317 24.1733V27.9776C102.503 30.0545 104.317 31.4621 106.19 32.3771L111.967 34.7907C120.323 38.8716 122.411 48.5552 116.324 56.683L114.595 58.9654C113.044 61.0623 113.363 63.8145 114.906 65.9167L116.636 68.3381C122.93 76.0847 119.381 86.7133 110.49 90.4265L105.517 92.5035C103.644 93.2858 102.91 94.6285 102.56 96.628L102.214 103.13C101.003 112.053 93.0785 116.083 86.7201 115.182L79.146 113.159C77.3267 112.902 75.0651 113.505 73.8547 115.408L71.1223 119.143C64.3439 126.786 55.1946 125.515 50.579 121.045L45.5391 114.941C44.2191 113.662 42.5553 112.572 40.564 113.323L32.9409 115.408C26.6474 116.298 19.2367 111.461 18.0506 105.216L17.1703 96.1785C16.8131 94.2977 15.5726 92.7031 13.8372 91.8947L8.48965 90.057C0.448203 86.3098 -2.24521 77.2375 2.37199 69.6619L5.38602 65.4938C6.59667 63.5074 6.53912 60.9978 5.23867 59.0691L2.99069 55.8872C-3.37279 46.826 1.02689 36.6982 10.4565 33.6621L12.5362 32.9923C14.8317 32.2531 17.049 30.3471 17.2397 27.943L17.7029 22.1074C18.4546 12.6351 27.098 7.19977 36.1893 9.96352L39.1317 10.858C41.9673 11.9647 44.1891 11.0222 45.7372 9.33625L48.919 5.27704Z" fill="url(#paint3_radial_1703_18388)"/>
<path d="M48.919 5.27704C55.6974 -2.35313 64.9136 -1.13875 70.8108 5.27704L74.4073 9.44097C75.6527 10.7958 77.455 11.4984 79.2884 11.344L85.6826 9.44097C94.398 7.57264 102.317 14.0745 102.317 24.1733V27.9776C102.503 30.0545 104.317 31.4621 106.19 32.3771L111.967 34.7907C120.323 38.8716 122.411 48.5552 116.324 56.683L114.595 58.9654C113.044 61.0623 113.363 63.8145 114.906 65.9167L116.636 68.3381C122.93 76.0847 119.381 86.7133 110.49 90.4265L105.517 92.5035C103.644 93.2858 102.91 94.6285 102.56 96.628L102.214 103.13C101.003 112.053 93.0785 116.083 86.7201 115.182L79.146 113.159C77.3267 112.902 75.0651 113.505 73.8547 115.408L71.1223 119.143C64.3439 126.786 55.1946 125.515 50.579 121.045L45.5391 114.941C44.2191 113.662 42.5553 112.572 40.564 113.323L32.9409 115.408C26.6474 116.298 19.2367 111.461 18.0506 105.216L17.1703 96.1785C16.8131 94.2977 15.5726 92.7031 13.8372 91.8947L8.48965 90.057C0.448203 86.3098 -2.24521 77.2375 2.37199 69.6619L5.38602 65.4938C6.59667 63.5074 6.53912 60.9978 5.23867 59.0691L2.99069 55.8872C-3.37279 46.826 1.02689 36.6982 10.4565 33.6621L12.5362 32.9923C14.8317 32.2531 17.049 30.3471 17.2397 27.943L17.7029 22.1074C18.4546 12.6351 27.098 7.19977 36.1893 9.96352L39.1317 10.858C41.9673 11.9647 44.1891 11.0222 45.7372 9.33625L48.919 5.27704Z" fill="url(#paint4_radial_1703_18388)"/>
<path d="M48.919 5.27704C55.6974 -2.35313 64.9136 -1.13875 70.8108 5.27704L74.4073 9.44097C75.6527 10.7958 77.455 11.4984 79.2884 11.344L85.6826 9.44097C94.398 7.57264 102.317 14.0745 102.317 24.1733V27.9776C102.503 30.0545 104.317 31.4621 106.19 32.3771L111.967 34.7907C120.323 38.8716 122.411 48.5552 116.324 56.683L114.595 58.9654C113.044 61.0623 113.363 63.8145 114.906 65.9167L116.636 68.3381C122.93 76.0847 119.381 86.7133 110.49 90.4265L105.517 92.5035C103.644 93.2858 102.91 94.6285 102.56 96.628L102.214 103.13C101.003 112.053 93.0785 116.083 86.7201 115.182L79.146 113.159C77.3267 112.902 75.0651 113.505 73.8547 115.408L71.1223 119.143C64.3439 126.786 55.1946 125.515 50.579 121.045L45.5391 114.941C44.2191 113.662 42.5553 112.572 40.564 113.323L32.9409 115.408C26.6474 116.298 19.2367 111.461 18.0506 105.216L17.1703 96.1785C16.8131 94.2977 15.5726 92.7031 13.8372 91.8947L8.48965 90.057C0.448203 86.3098 -2.24521 77.2375 2.37199 69.6619L5.38602 65.4938C6.59667 63.5074 6.53912 60.9978 5.23867 59.0691L2.99069 55.8872C-3.37279 46.826 1.02689 36.6982 10.4565 33.6621L12.5362 32.9923C14.8317 32.2531 17.049 30.3471 17.2397 27.943L17.7029 22.1074C18.4546 12.6351 27.098 7.19977 36.1893 9.96352L39.1317 10.858C41.9673 11.9647 44.1891 11.0222 45.7372 9.33625L48.919 5.27704Z" fill="url(#paint5_radial_1703_18388)"/>
<path d="M48.919 5.27704C55.6974 -2.35313 64.9136 -1.13875 70.8108 5.27704L74.4073 9.44097C75.6527 10.7958 77.455 11.4984 79.2884 11.344L85.6826 9.44097C94.398 7.57264 102.317 14.0745 102.317 24.1733V27.9776C102.503 30.0545 104.317 31.4621 106.19 32.3771L111.967 34.7907C120.323 38.8716 122.411 48.5552 116.324 56.683L114.595 58.9654C113.044 61.0623 113.363 63.8145 114.906 65.9167L116.636 68.3381C122.93 76.0847 119.381 86.7133 110.49 90.4265L105.517 92.5035C103.644 93.2858 102.91 94.6285 102.56 96.628L102.214 103.13C101.003 112.053 93.0785 116.083 86.7201 115.182L79.146 113.159C77.3267 112.902 75.0651 113.505 73.8547 115.408L71.1223 119.143C64.3439 126.786 55.1946 125.515 50.579 121.045L45.5391 114.941C44.2191 113.662 42.5553 112.572 40.564 113.323L32.9409 115.408C26.6474 116.298 19.2367 111.461 18.0506 105.216L17.1703 96.1785C16.8131 94.2977 15.5726 92.7031 13.8372 91.8947L8.48965 90.057C0.448203 86.3098 -2.24521 77.2375 2.37199 69.6619L5.38602 65.4938C6.59667 63.5074 6.53912 60.9978 5.23867 59.0691L2.99069 55.8872C-3.37279 46.826 1.02689 36.6982 10.4565 33.6621L12.5362 32.9923C14.8317 32.2531 17.049 30.3471 17.2397 27.943L17.7029 22.1074C18.4546 12.6351 27.098 7.19977 36.1893 9.96352L39.1317 10.858C41.9673 11.9647 44.1891 11.0222 45.7372 9.33625L48.919 5.27704Z" fill="url(#paint6_radial_1703_18388)"/>
<path d="M48.919 5.27704C55.6974 -2.35313 64.9136 -1.13875 70.8108 5.27704L74.4073 9.44097C75.6527 10.7958 77.455 11.4984 79.2884 11.344L85.6826 9.44097C94.398 7.57264 102.317 14.0745 102.317 24.1733V27.9776C102.503 30.0545 104.317 31.4621 106.19 32.3771L111.967 34.7907C120.323 38.8716 122.411 48.5552 116.324 56.683L114.595 58.9654C113.044 61.0623 113.363 63.8145 114.906 65.9167L116.636 68.3381C122.93 76.0847 119.381 86.7133 110.49 90.4265L105.517 92.5035C103.644 93.2858 102.91 94.6285 102.56 96.628L102.214 103.13C101.003 112.053 93.0785 116.083 86.7201 115.182L79.146 113.159C77.3267 112.902 75.0651 113.505 73.8547 115.408L71.1223 119.143C64.3439 126.786 55.1946 125.515 50.579 121.045L45.5391 114.941C44.2191 113.662 42.5553 112.572 40.564 113.323L32.9409 115.408C26.6474 116.298 19.2367 111.461 18.0506 105.216L17.1703 96.1785C16.8131 94.2977 15.5726 92.7031 13.8372 91.8947L8.48965 90.057C0.448203 86.3098 -2.24521 77.2375 2.37199 69.6619L5.38602 65.4938C6.59667 63.5074 6.53912 60.9978 5.23867 59.0691L2.99069 55.8872C-3.37279 46.826 1.02689 36.6982 10.4565 33.6621L12.5362 32.9923C14.8317 32.2531 17.049 30.3471 17.2397 27.943L17.7029 22.1074C18.4546 12.6351 27.098 7.19977 36.1893 9.96352L39.1317 10.858C41.9673 11.9647 44.1891 11.0222 45.7372 9.33625L48.919 5.27704Z" fill="url(#paint7_radial_1703_18388)"/>
<path d="M48.919 5.27704C55.6974 -2.35313 64.9136 -1.13875 70.8108 5.27704L74.4073 9.44097C75.6527 10.7958 77.455 11.4984 79.2884 11.344L85.6826 9.44097C94.398 7.57264 102.317 14.0745 102.317 24.1733V27.9776C102.503 30.0545 104.317 31.4621 106.19 32.3771L111.967 34.7907C120.323 38.8716 122.411 48.5552 116.324 56.683L114.595 58.9654C113.044 61.0623 113.363 63.8145 114.906 65.9167L116.636 68.3381C122.93 76.0847 119.381 86.7133 110.49 90.4265L105.517 92.5035C103.644 93.2858 102.91 94.6285 102.56 96.628L102.214 103.13C101.003 112.053 93.0785 116.083 86.7201 115.182L79.146 113.159C77.3267 112.902 75.0651 113.505 73.8547 115.408L71.1223 119.143C64.3439 126.786 55.1946 125.515 50.579 121.045L45.5391 114.941C44.2191 113.662 42.5553 112.572 40.564 113.323L32.9409 115.408C26.6474 116.298 19.2367 111.461 18.0506 105.216L17.1703 96.1785C16.8131 94.2977 15.5726 92.7031 13.8372 91.8947L8.48965 90.057C0.448203 86.3098 -2.24521 77.2375 2.37199 69.6619L5.38602 65.4938C6.59667 63.5074 6.53912 60.9978 5.23867 59.0691L2.99069 55.8872C-3.37279 46.826 1.02689 36.6982 10.4565 33.6621L12.5362 32.9923C14.8317 32.2531 17.049 30.3471 17.2397 27.943L17.7029 22.1074C18.4546 12.6351 27.098 7.19977 36.1893 9.96352L39.1317 10.858C41.9673 11.9647 44.1891 11.0222 45.7372 9.33625L48.919 5.27704Z" fill="url(#paint8_radial_1703_18388)"/>
<path d="M59.9146 109.764C86.1799 109.764 107.472 88.4715 107.472 62.2063C107.472 35.9411 86.1799 14.6492 59.9146 14.6492C33.6495 14.6492 12.3574 35.9411 12.3574 62.2063C12.3574 88.4715 33.6495 109.764 59.9146 109.764Z" fill="url(#paint9_radial_1703_18388)"/>
<path d="M59.9146 109.764C86.1799 109.764 107.472 88.4715 107.472 62.2063C107.472 35.9411 86.1799 14.6492 59.9146 14.6492C33.6495 14.6492 12.3574 35.9411 12.3574 62.2063C12.3574 88.4715 33.6495 109.764 59.9146 109.764Z" fill="url(#paint10_radial_1703_18388)"/>
<path d="M48.919 5.27704C55.6974 -2.35313 64.9136 -1.13875 70.8108 5.27704L74.4073 9.44097C75.6527 10.7958 77.455 11.4984 79.2884 11.344L85.6826 9.44097C94.398 7.57264 102.317 14.0745 102.317 24.1733V27.9776C102.503 30.0545 104.317 31.4621 106.19 32.3771L111.967 34.7907C120.323 38.8716 122.411 48.5552 116.324 56.683L114.595 58.9654C113.044 61.0623 113.363 63.8145 114.906 65.9167L116.636 68.3381C122.93 76.0847 119.381 86.7133 110.49 90.4265L105.517 92.5035C103.644 93.2858 102.91 94.6285 102.56 96.628L102.214 103.13C101.003 112.053 93.0785 116.083 86.7201 115.182L79.146 113.159C77.3267 112.902 75.0651 113.505 73.8547 115.408L71.1223 119.143C64.3439 126.786 55.1946 125.515 50.579 121.045L45.5391 114.941C44.2191 113.662 42.5553 112.572 40.564 113.323L32.9409 115.408C26.6474 116.298 19.2367 111.461 18.0506 105.216L17.1703 96.1785C16.8131 94.2977 15.5726 92.7031 13.8372 91.8947L8.48965 90.057C0.448203 86.3098 -2.24521 77.2375 2.37199 69.6619L5.38602 65.4938C6.59667 63.5074 6.53912 60.9978 5.23867 59.0691L2.99069 55.8872C-3.37279 46.826 1.02689 36.6982 10.4565 33.6621L12.5362 32.9923C14.8317 32.2531 17.049 30.3471 17.2397 27.943L17.7029 22.1074C18.4546 12.6351 27.098 7.19977 36.1893 9.96352L39.1317 10.858C41.9673 11.9647 44.1891 11.0222 45.7372 9.33625L48.919 5.27704Z" fill="url(#paint11_radial_1703_18388)"/>
<path d="M59.9146 109.764C86.1799 109.764 107.472 88.4715 107.472 62.2063C107.472 35.9411 86.1799 14.6492 59.9146 14.6492C33.6495 14.6492 12.3574 35.9411 12.3574 62.2063C12.3574 88.4715 33.6495 109.764 59.9146 109.764Z" fill="url(#paint12_radial_1703_18388)"/>
<defs>
<linearGradient id="paint0_linear_1703_18388" x1="96.8504" y1="20.9301" x2="28.8988" y2="107.627" gradientUnits="userSpaceOnUse">
<stop stop-color="#FC8B23"/>
<stop offset="1" stop-color="#E67639"/>
</linearGradient>
<radialGradient id="paint1_radial_1703_18388" cx="0" cy="0" r="1" gradientUnits="userSpaceOnUse" gradientTransform="translate(71.3548 5.7479) rotate(138.155) scale(16.7274 14.7587)">
<stop offset="0.300161" stop-color="#FFA13A"/>
<stop offset="1" stop-color="#FFA13A" stop-opacity="0"/>
</radialGradient>
<radialGradient id="paint2_radial_1703_18388" cx="0" cy="0" r="1" gradientUnits="userSpaceOnUse" gradientTransform="translate(27.8342 0.467292) rotate(67.8105) scale(26.5926 23.4629)">
<stop offset="0.300161" stop-color="#FF942A"/>
<stop offset="1" stop-color="#FF942A" stop-opacity="0"/>
</radialGradient>
<radialGradient id="paint3_radial_1703_18388" cx="0" cy="0" r="1" gradientUnits="userSpaceOnUse" gradientTransform="translate(99.2529 25.2765) rotate(-164.745) scale(10.6028 14.681)">
<stop offset="0.300161" stop-color="#FFA13D"/>
<stop offset="1" stop-color="#FFA13D" stop-opacity="0"/>
</radialGradient>
<radialGradient id="paint4_radial_1703_18388" cx="0" cy="0" r="1" gradientUnits="userSpaceOnUse" gradientTransform="translate(120.641 40.7132) rotate(154.195) scale(18.7993 13.8847)">
<stop offset="0.300161" stop-color="#FFA13D"/>
<stop offset="1" stop-color="#FFA13D" stop-opacity="0"/>
</radialGradient>
<radialGradient id="paint5_radial_1703_18388" cx="0" cy="0" r="1" gradientUnits="userSpaceOnUse" gradientTransform="translate(124.733 72.5168) rotate(-173.379) scale(20.9703 11.8175)">
<stop offset="0.300161" stop-color="#FFA13D"/>
<stop offset="1" stop-color="#FFA13D" stop-opacity="0"/>
</radialGradient>
<radialGradient id="paint6_radial_1703_18388" cx="0" cy="0" r="1" gradientUnits="userSpaceOnUse" gradientTransform="translate(105.948 96.8813) rotate(-43.9639) scale(19.0218 18.3253)">
<stop stop-color="#E0762A"/>
<stop offset="1" stop-color="#E0762A" stop-opacity="0"/>
</radialGradient>
<radialGradient id="paint7_radial_1703_18388" cx="0" cy="0" r="1" gradientUnits="userSpaceOnUse" gradientTransform="translate(17.791 92.4173) rotate(-127.747) scale(14.583 14.0491)">
<stop stop-color="#E0762A"/>
<stop offset="1" stop-color="#E0762A" stop-opacity="0"/>
</radialGradient>
<radialGradient id="paint8_radial_1703_18388" cx="0" cy="0" r="1" gradientUnits="userSpaceOnUse" gradientTransform="translate(-2.10954 43.1312) rotate(25.2777) scale(14.809 17.8988)">
<stop stop-color="#F0851D"/>
<stop offset="1" stop-color="#F0851D" stop-opacity="0"/>
</radialGradient>
<radialGradient id="paint9_radial_1703_18388" cx="0" cy="0" r="1" gradientUnits="userSpaceOnUse" gradientTransform="translate(86.9025 34.6546) rotate(117.739) scale(84.862 104.796)">
<stop offset="0.17178" stop-color="#FFD13D"/>
<stop offset="1" stop-color="#D89A29"/>
</radialGradient>
<radialGradient id="paint10_radial_1703_18388" cx="0" cy="0" r="1" gradientUnits="userSpaceOnUse" gradientTransform="translate(43.0114 89.588) rotate(-140.631) scale(29.6039 24.9943)">
<stop offset="0.340699" stop-color="#DCA225"/>
<stop offset="1" stop-color="#DCA225" stop-opacity="0"/>
</radialGradient>
<radialGradient id="paint11_radial_1703_18388" cx="0" cy="0" r="1" gradientUnits="userSpaceOnUse" gradientTransform="translate(86.2881 118.002) rotate(-142.487) scale(17.2657 16.2887)">
<stop offset="0.336586" stop-color="#E3745B"/>
<stop offset="1" stop-color="#E3745B" stop-opacity="0"/>
</radialGradient>
<radialGradient id="paint12_radial_1703_18388" cx="0" cy="0" r="1" gradientUnits="userSpaceOnUse" gradientTransform="translate(98.7595 54.0853) rotate(168.299) scale(101.277 85.5072)">
<stop offset="0.620449" stop-color="#DCA225" stop-opacity="0"/>
<stop offset="1" stop-color="#DCA225"/>
</radialGradient>
</defs>
</svg>
