<svg width="155" height="155" viewBox="0 0 155 155" fill="none" xmlns="http://www.w3.org/2000/svg">
<path d="M58.6544 24.652C65.4327 17.0219 74.6489 18.2363 80.5462 24.652L84.1427 28.816C85.388 30.1708 87.1904 30.8734 89.0237 30.719L95.418 28.816C104.133 26.9476 112.053 33.4496 112.053 43.5483V47.3526C112.238 49.4295 114.052 50.8371 115.925 51.7521L121.702 54.1657C130.059 58.2466 132.147 67.9302 126.06 76.058L124.33 78.3404C122.779 80.4373 123.098 83.1895 124.642 85.2917L126.371 87.7131C132.665 95.4597 129.116 106.088 120.225 109.802L115.252 111.879C113.379 112.661 112.645 114.003 112.295 116.003L111.949 122.505C110.739 131.428 102.814 135.458 96.4555 134.557L88.8813 132.534C87.062 132.277 84.8005 132.88 83.59 134.783L80.8576 138.518C74.0793 146.161 64.9299 144.89 60.3143 140.42L55.2744 134.316C53.9545 133.037 52.2907 131.947 50.2994 132.698L42.6763 134.783C36.3828 135.673 28.9721 130.836 27.7859 124.591L26.9057 115.553C26.5484 113.673 25.308 112.078 23.5726 111.27L18.225 109.432C10.1836 105.685 7.49014 96.6125 12.1073 89.0369L15.1214 84.8688C16.332 82.8824 16.2745 80.3728 14.974 78.4441L12.726 75.2622C6.36256 66.201 10.7622 56.0732 20.1919 53.0371L22.2716 52.3673C24.567 51.6281 26.7843 49.7221 26.9751 47.318L27.4382 41.4824C28.1899 32.0101 36.8334 26.5748 45.9246 29.3385L48.8671 30.233C51.7026 31.3397 53.9245 30.3972 55.4725 28.7112L58.6544 24.652Z" fill="url(#paint0_linear_1526_3730)"/>
<path d="M58.6544 24.652C65.4327 17.0219 74.6489 18.2363 80.5462 24.652L84.1427 28.816C85.388 30.1708 87.1904 30.8734 89.0237 30.719L95.418 28.816C104.133 26.9476 112.053 33.4496 112.053 43.5483V47.3526C112.238 49.4295 114.052 50.8371 115.925 51.7521L121.702 54.1657C130.059 58.2466 132.147 67.9302 126.06 76.058L124.33 78.3404C122.779 80.4373 123.098 83.1895 124.642 85.2917L126.371 87.7131C132.665 95.4597 129.116 106.088 120.225 109.802L115.252 111.879C113.379 112.661 112.645 114.003 112.295 116.003L111.949 122.505C110.739 131.428 102.814 135.458 96.4555 134.557L88.8813 132.534C87.062 132.277 84.8005 132.88 83.59 134.783L80.8576 138.518C74.0793 146.161 64.9299 144.89 60.3143 140.42L55.2744 134.316C53.9545 133.037 52.2907 131.947 50.2994 132.698L42.6763 134.783C36.3828 135.673 28.9721 130.836 27.7859 124.591L26.9057 115.553C26.5484 113.673 25.308 112.078 23.5726 111.27L18.225 109.432C10.1836 105.685 7.49014 96.6125 12.1073 89.0369L15.1214 84.8688C16.332 82.8824 16.2745 80.3728 14.974 78.4441L12.726 75.2622C6.36256 66.201 10.7622 56.0732 20.1919 53.0371L22.2716 52.3673C24.567 51.6281 26.7843 49.7221 26.9751 47.318L27.4382 41.4824C28.1899 32.0101 36.8334 26.5748 45.9246 29.3385L48.8671 30.233C51.7026 31.3397 53.9245 30.3972 55.4725 28.7112L58.6544 24.652Z" fill="url(#paint1_radial_1526_3730)"/>
<path d="M58.6544 24.652C65.4327 17.0219 74.6489 18.2363 80.5462 24.652L84.1427 28.816C85.388 30.1708 87.1904 30.8734 89.0237 30.719L95.418 28.816C104.133 26.9476 112.053 33.4496 112.053 43.5483V47.3526C112.238 49.4295 114.052 50.8371 115.925 51.7521L121.702 54.1657C130.059 58.2466 132.147 67.9302 126.06 76.058L124.33 78.3404C122.779 80.4373 123.098 83.1895 124.642 85.2917L126.371 87.7131C132.665 95.4597 129.116 106.088 120.225 109.802L115.252 111.879C113.379 112.661 112.645 114.003 112.295 116.003L111.949 122.505C110.739 131.428 102.814 135.458 96.4555 134.557L88.8813 132.534C87.062 132.277 84.8005 132.88 83.59 134.783L80.8576 138.518C74.0793 146.161 64.9299 144.89 60.3143 140.42L55.2744 134.316C53.9545 133.037 52.2907 131.947 50.2994 132.698L42.6763 134.783C36.3828 135.673 28.9721 130.836 27.7859 124.591L26.9057 115.553C26.5484 113.673 25.308 112.078 23.5726 111.27L18.225 109.432C10.1836 105.685 7.49014 96.6125 12.1073 89.0369L15.1214 84.8688C16.332 82.8824 16.2745 80.3728 14.974 78.4441L12.726 75.2622C6.36256 66.201 10.7622 56.0732 20.1919 53.0371L22.2716 52.3673C24.567 51.6281 26.7843 49.7221 26.9751 47.318L27.4382 41.4824C28.1899 32.0101 36.8334 26.5748 45.9246 29.3385L48.8671 30.233C51.7026 31.3397 53.9245 30.3972 55.4725 28.7112L58.6544 24.652Z" fill="url(#paint2_radial_1526_3730)"/>
<path d="M58.6544 24.652C65.4327 17.0219 74.6489 18.2363 80.5462 24.652L84.1427 28.816C85.388 30.1708 87.1904 30.8734 89.0237 30.719L95.418 28.816C104.133 26.9476 112.053 33.4496 112.053 43.5483V47.3526C112.238 49.4295 114.052 50.8371 115.925 51.7521L121.702 54.1657C130.059 58.2466 132.147 67.9302 126.06 76.058L124.33 78.3404C122.779 80.4373 123.098 83.1895 124.642 85.2917L126.371 87.7131C132.665 95.4597 129.116 106.088 120.225 109.802L115.252 111.879C113.379 112.661 112.645 114.003 112.295 116.003L111.949 122.505C110.739 131.428 102.814 135.458 96.4555 134.557L88.8813 132.534C87.062 132.277 84.8005 132.88 83.59 134.783L80.8576 138.518C74.0793 146.161 64.9299 144.89 60.3143 140.42L55.2744 134.316C53.9545 133.037 52.2907 131.947 50.2994 132.698L42.6763 134.783C36.3828 135.673 28.9721 130.836 27.7859 124.591L26.9057 115.553C26.5484 113.673 25.308 112.078 23.5726 111.27L18.225 109.432C10.1836 105.685 7.49014 96.6125 12.1073 89.0369L15.1214 84.8688C16.332 82.8824 16.2745 80.3728 14.974 78.4441L12.726 75.2622C6.36256 66.201 10.7622 56.0732 20.1919 53.0371L22.2716 52.3673C24.567 51.6281 26.7843 49.7221 26.9751 47.318L27.4382 41.4824C28.1899 32.0101 36.8334 26.5748 45.9246 29.3385L48.8671 30.233C51.7026 31.3397 53.9245 30.3972 55.4725 28.7112L58.6544 24.652Z" fill="url(#paint3_radial_1526_3730)"/>
<path d="M58.6544 24.652C65.4327 17.0219 74.6489 18.2363 80.5462 24.652L84.1427 28.816C85.388 30.1708 87.1904 30.8734 89.0237 30.719L95.418 28.816C104.133 26.9476 112.053 33.4496 112.053 43.5483V47.3526C112.238 49.4295 114.052 50.8371 115.925 51.7521L121.702 54.1657C130.059 58.2466 132.147 67.9302 126.06 76.058L124.33 78.3404C122.779 80.4373 123.098 83.1895 124.642 85.2917L126.371 87.7131C132.665 95.4597 129.116 106.088 120.225 109.802L115.252 111.879C113.379 112.661 112.645 114.003 112.295 116.003L111.949 122.505C110.739 131.428 102.814 135.458 96.4555 134.557L88.8813 132.534C87.062 132.277 84.8005 132.88 83.59 134.783L80.8576 138.518C74.0793 146.161 64.9299 144.89 60.3143 140.42L55.2744 134.316C53.9545 133.037 52.2907 131.947 50.2994 132.698L42.6763 134.783C36.3828 135.673 28.9721 130.836 27.7859 124.591L26.9057 115.553C26.5484 113.673 25.308 112.078 23.5726 111.27L18.225 109.432C10.1836 105.685 7.49014 96.6125 12.1073 89.0369L15.1214 84.8688C16.332 82.8824 16.2745 80.3728 14.974 78.4441L12.726 75.2622C6.36256 66.201 10.7622 56.0732 20.1919 53.0371L22.2716 52.3673C24.567 51.6281 26.7843 49.7221 26.9751 47.318L27.4382 41.4824C28.1899 32.0101 36.8334 26.5748 45.9246 29.3385L48.8671 30.233C51.7026 31.3397 53.9245 30.3972 55.4725 28.7112L58.6544 24.652Z" fill="url(#paint4_radial_1526_3730)"/>
<path d="M58.6544 24.652C65.4327 17.0219 74.6489 18.2363 80.5462 24.652L84.1427 28.816C85.388 30.1708 87.1904 30.8734 89.0237 30.719L95.418 28.816C104.133 26.9476 112.053 33.4496 112.053 43.5483V47.3526C112.238 49.4295 114.052 50.8371 115.925 51.7521L121.702 54.1657C130.059 58.2466 132.147 67.9302 126.06 76.058L124.33 78.3404C122.779 80.4373 123.098 83.1895 124.642 85.2917L126.371 87.7131C132.665 95.4597 129.116 106.088 120.225 109.802L115.252 111.879C113.379 112.661 112.645 114.003 112.295 116.003L111.949 122.505C110.739 131.428 102.814 135.458 96.4555 134.557L88.8813 132.534C87.062 132.277 84.8005 132.88 83.59 134.783L80.8576 138.518C74.0793 146.161 64.9299 144.89 60.3143 140.42L55.2744 134.316C53.9545 133.037 52.2907 131.947 50.2994 132.698L42.6763 134.783C36.3828 135.673 28.9721 130.836 27.7859 124.591L26.9057 115.553C26.5484 113.673 25.308 112.078 23.5726 111.27L18.225 109.432C10.1836 105.685 7.49014 96.6125 12.1073 89.0369L15.1214 84.8688C16.332 82.8824 16.2745 80.3728 14.974 78.4441L12.726 75.2622C6.36256 66.201 10.7622 56.0732 20.1919 53.0371L22.2716 52.3673C24.567 51.6281 26.7843 49.7221 26.9751 47.318L27.4382 41.4824C28.1899 32.0101 36.8334 26.5748 45.9246 29.3385L48.8671 30.233C51.7026 31.3397 53.9245 30.3972 55.4725 28.7112L58.6544 24.652Z" fill="url(#paint5_radial_1526_3730)"/>
<path d="M58.6544 24.652C65.4327 17.0219 74.6489 18.2363 80.5462 24.652L84.1427 28.816C85.388 30.1708 87.1904 30.8734 89.0237 30.719L95.418 28.816C104.133 26.9476 112.053 33.4496 112.053 43.5483V47.3526C112.238 49.4295 114.052 50.8371 115.925 51.7521L121.702 54.1657C130.059 58.2466 132.147 67.9302 126.06 76.058L124.33 78.3404C122.779 80.4373 123.098 83.1895 124.642 85.2917L126.371 87.7131C132.665 95.4597 129.116 106.088 120.225 109.802L115.252 111.879C113.379 112.661 112.645 114.003 112.295 116.003L111.949 122.505C110.739 131.428 102.814 135.458 96.4555 134.557L88.8813 132.534C87.062 132.277 84.8005 132.88 83.59 134.783L80.8576 138.518C74.0793 146.161 64.9299 144.89 60.3143 140.42L55.2744 134.316C53.9545 133.037 52.2907 131.947 50.2994 132.698L42.6763 134.783C36.3828 135.673 28.9721 130.836 27.7859 124.591L26.9057 115.553C26.5484 113.673 25.308 112.078 23.5726 111.27L18.225 109.432C10.1836 105.685 7.49014 96.6125 12.1073 89.0369L15.1214 84.8688C16.332 82.8824 16.2745 80.3728 14.974 78.4441L12.726 75.2622C6.36256 66.201 10.7622 56.0732 20.1919 53.0371L22.2716 52.3673C24.567 51.6281 26.7843 49.7221 26.9751 47.318L27.4382 41.4824C28.1899 32.0101 36.8334 26.5748 45.9246 29.3385L48.8671 30.233C51.7026 31.3397 53.9245 30.3972 55.4725 28.7112L58.6544 24.652Z" fill="url(#paint6_radial_1526_3730)"/>
<path d="M58.6544 24.652C65.4327 17.0219 74.6489 18.2363 80.5462 24.652L84.1427 28.816C85.388 30.1708 87.1904 30.8734 89.0237 30.719L95.418 28.816C104.133 26.9476 112.053 33.4496 112.053 43.5483V47.3526C112.238 49.4295 114.052 50.8371 115.925 51.7521L121.702 54.1657C130.059 58.2466 132.147 67.9302 126.06 76.058L124.33 78.3404C122.779 80.4373 123.098 83.1895 124.642 85.2917L126.371 87.7131C132.665 95.4597 129.116 106.088 120.225 109.802L115.252 111.879C113.379 112.661 112.645 114.003 112.295 116.003L111.949 122.505C110.739 131.428 102.814 135.458 96.4555 134.557L88.8813 132.534C87.062 132.277 84.8005 132.88 83.59 134.783L80.8576 138.518C74.0793 146.161 64.9299 144.89 60.3143 140.42L55.2744 134.316C53.9545 133.037 52.2907 131.947 50.2994 132.698L42.6763 134.783C36.3828 135.673 28.9721 130.836 27.7859 124.591L26.9057 115.553C26.5484 113.673 25.308 112.078 23.5726 111.27L18.225 109.432C10.1836 105.685 7.49014 96.6125 12.1073 89.0369L15.1214 84.8688C16.332 82.8824 16.2745 80.3728 14.974 78.4441L12.726 75.2622C6.36256 66.201 10.7622 56.0732 20.1919 53.0371L22.2716 52.3673C24.567 51.6281 26.7843 49.7221 26.9751 47.318L27.4382 41.4824C28.1899 32.0101 36.8334 26.5748 45.9246 29.3385L48.8671 30.233C51.7026 31.3397 53.9245 30.3972 55.4725 28.7112L58.6544 24.652Z" fill="url(#paint7_radial_1526_3730)"/>
<path d="M58.6544 24.652C65.4327 17.0219 74.6489 18.2363 80.5462 24.652L84.1427 28.816C85.388 30.1708 87.1904 30.8734 89.0237 30.719L95.418 28.816C104.133 26.9476 112.053 33.4496 112.053 43.5483V47.3526C112.238 49.4295 114.052 50.8371 115.925 51.7521L121.702 54.1657C130.059 58.2466 132.147 67.9302 126.06 76.058L124.33 78.3404C122.779 80.4373 123.098 83.1895 124.642 85.2917L126.371 87.7131C132.665 95.4597 129.116 106.088 120.225 109.802L115.252 111.879C113.379 112.661 112.645 114.003 112.295 116.003L111.949 122.505C110.739 131.428 102.814 135.458 96.4555 134.557L88.8813 132.534C87.062 132.277 84.8005 132.88 83.59 134.783L80.8576 138.518C74.0793 146.161 64.9299 144.89 60.3143 140.42L55.2744 134.316C53.9545 133.037 52.2907 131.947 50.2994 132.698L42.6763 134.783C36.3828 135.673 28.9721 130.836 27.7859 124.591L26.9057 115.553C26.5484 113.673 25.308 112.078 23.5726 111.27L18.225 109.432C10.1836 105.685 7.49014 96.6125 12.1073 89.0369L15.1214 84.8688C16.332 82.8824 16.2745 80.3728 14.974 78.4441L12.726 75.2622C6.36256 66.201 10.7622 56.0732 20.1919 53.0371L22.2716 52.3673C24.567 51.6281 26.7843 49.7221 26.9751 47.318L27.4382 41.4824C28.1899 32.0101 36.8334 26.5748 45.9246 29.3385L48.8671 30.233C51.7026 31.3397 53.9245 30.3972 55.4725 28.7112L58.6544 24.652Z" fill="url(#paint8_radial_1526_3730)"/>
<path d="M58.6544 24.652C65.4327 17.0219 74.6489 18.2363 80.5462 24.652L84.1427 28.816C85.388 30.1708 87.1904 30.8734 89.0237 30.719L95.418 28.816C104.133 26.9476 112.053 33.4496 112.053 43.5483V47.3526C112.238 49.4295 114.052 50.8371 115.925 51.7521L121.702 54.1657C130.059 58.2466 132.147 67.9302 126.06 76.058L124.33 78.3404C122.779 80.4373 123.098 83.1895 124.642 85.2917L126.371 87.7131C132.665 95.4597 129.116 106.088 120.225 109.802L115.252 111.879C113.379 112.661 112.645 114.003 112.295 116.003L111.949 122.505C110.739 131.428 102.814 135.458 96.4555 134.557L88.8813 132.534C87.062 132.277 84.8005 132.88 83.59 134.783L80.8576 138.518C74.0793 146.161 64.9299 144.89 60.3143 140.42L55.2744 134.316C53.9545 133.037 52.2907 131.947 50.2994 132.698L42.6763 134.783C36.3828 135.673 28.9721 130.836 27.7859 124.591L26.9057 115.553C26.5484 113.673 25.308 112.078 23.5726 111.27L18.225 109.432C10.1836 105.685 7.49014 96.6125 12.1073 89.0369L15.1214 84.8688C16.332 82.8824 16.2745 80.3728 14.974 78.4441L12.726 75.2622C6.36256 66.201 10.7622 56.0732 20.1919 53.0371L22.2716 52.3673C24.567 51.6281 26.7843 49.7221 26.9751 47.318L27.4382 41.4824C28.1899 32.0101 36.8334 26.5748 45.9246 29.3385L48.8671 30.233C51.7026 31.3397 53.9245 30.3972 55.4725 28.7112L58.6544 24.652Z" fill="url(#paint9_radial_1526_3730)"/>
<path d="M69.65 129.139C95.9152 129.139 117.207 107.847 117.207 81.5813C117.207 55.3161 95.9152 34.0242 69.65 34.0242C43.3848 34.0242 22.0928 55.3161 22.0928 81.5813C22.0928 107.847 43.3848 129.139 69.65 129.139Z" fill="url(#paint10_radial_1526_3730)"/>
<path d="M69.65 129.139C95.9152 129.139 117.207 107.847 117.207 81.5813C117.207 55.3161 95.9152 34.0242 69.65 34.0242C43.3848 34.0242 22.0928 55.3161 22.0928 81.5813C22.0928 107.847 43.3848 129.139 69.65 129.139Z" fill="url(#paint11_radial_1526_3730)"/>
<path d="M69.65 129.139C95.9152 129.139 117.207 107.847 117.207 81.5813C117.207 55.3161 95.9152 34.0242 69.65 34.0242C43.3848 34.0242 22.0928 55.3161 22.0928 81.5813C22.0928 107.847 43.3848 129.139 69.65 129.139Z" fill="url(#paint12_radial_1526_3730)"/>
<path d="M80.8465 120.376C88.9544 120.376 95.5274 113.803 95.5274 105.695C95.5274 97.5862 88.9544 91.0132 80.8465 91.0132C72.738 91.0132 66.165 97.5862 66.165 105.695C66.165 113.803 72.738 120.376 80.8465 120.376Z" fill="url(#paint13_radial_1526_3730)"/>
<path d="M80.8465 120.376C88.9544 120.376 95.5274 113.803 95.5274 105.695C95.5274 97.5862 88.9544 91.0132 80.8465 91.0132C72.738 91.0132 66.165 97.5862 66.165 105.695C66.165 113.803 72.738 120.376 80.8465 120.376Z" fill="url(#paint14_radial_1526_3730)"/>
<g filter="url(#filter0_i_1526_3730)">
<path d="M135.466 90.9951C122.54 78.397 101.858 78.6154 89.2593 91.5415C85.9994 94.8657 83.6265 98.7054 82.0644 102.806C81.7694 103.58 80.8142 103.884 80.1157 103.44C79.0864 102.785 78 102.21 76.8791 101.737C73.8934 100.353 70.5798 99.5884 67.0846 99.5884C54.0854 99.5884 43.5625 110.111 43.5625 123.11C43.5625 128.645 45.4923 133.743 48.6967 137.784C53.0295 143.465 59.8383 147.106 67.5215 147.106C76.7701 147.106 103.351 147.106 113.728 147.106C123.996 147.106 133.062 142.044 138.597 134.289C148.501 121.326 147.445 102.684 135.466 90.9951Z" fill="#D5D4DA"/>
<path d="M135.466 90.9951C122.54 78.397 101.858 78.6154 89.2593 91.5415C85.9994 94.8657 83.6265 98.7054 82.0644 102.806C81.7694 103.58 80.8142 103.884 80.1157 103.44C79.0864 102.785 78 102.21 76.8791 101.737C73.8934 100.353 70.5798 99.5884 67.0846 99.5884C54.0854 99.5884 43.5625 110.111 43.5625 123.11C43.5625 128.645 45.4923 133.743 48.6967 137.784C53.0295 143.465 59.8383 147.106 67.5215 147.106C76.7701 147.106 103.351 147.106 113.728 147.106C123.996 147.106 133.062 142.044 138.597 134.289C148.501 121.326 147.445 102.684 135.466 90.9951Z" fill="url(#paint15_linear_1526_3730)"/>
</g>
<path d="M135.466 90.9951C122.54 78.397 101.858 78.6154 89.2593 91.5415C85.9994 94.8657 83.6265 98.7054 82.0644 102.806C81.7694 103.58 80.8142 103.884 80.1157 103.44C79.0864 102.785 78 102.21 76.8791 101.737C73.8934 100.353 70.5798 99.5884 67.0846 99.5884C54.0854 99.5884 43.5625 110.111 43.5625 123.11C43.5625 128.645 45.4923 133.743 48.6967 137.784C53.0295 143.465 59.8383 147.106 67.5215 147.106C76.7701 147.106 103.351 147.106 113.728 147.106C123.996 147.106 133.062 142.044 138.597 134.289C148.501 121.326 147.445 102.684 135.466 90.9951Z" fill="url(#paint16_radial_1526_3730)"/>
<path d="M135.466 90.9951C122.54 78.397 101.858 78.6154 89.2593 91.5415C85.9994 94.8657 83.6265 98.7054 82.0644 102.806C81.7694 103.58 80.8142 103.884 80.1157 103.44C79.0864 102.785 78 102.21 76.8791 101.737C73.8934 100.353 70.5798 99.5884 67.0846 99.5884C54.0854 99.5884 43.5625 110.111 43.5625 123.11C43.5625 128.645 45.4923 133.743 48.6967 137.784C53.0295 143.465 59.8383 147.106 67.5215 147.106C76.7701 147.106 103.351 147.106 113.728 147.106C123.996 147.106 133.062 142.044 138.597 134.289C148.501 121.326 147.445 102.684 135.466 90.9951Z" fill="url(#paint17_radial_1526_3730)"/>
<path d="M135.466 90.9951C122.54 78.397 101.858 78.6154 89.2593 91.5415C85.9994 94.8657 83.6265 98.7054 82.0644 102.806C81.7694 103.58 80.8142 103.884 80.1157 103.44C79.0864 102.785 78 102.21 76.8791 101.737C73.8934 100.353 70.5798 99.5884 67.0846 99.5884C54.0854 99.5884 43.5625 110.111 43.5625 123.11C43.5625 128.645 45.4923 133.743 48.6967 137.784C53.0295 143.465 59.8383 147.106 67.5215 147.106C76.7701 147.106 103.351 147.106 113.728 147.106C123.996 147.106 133.062 142.044 138.597 134.289C148.501 121.326 147.445 102.684 135.466 90.9951Z" fill="url(#paint18_radial_1526_3730)"/>
<path d="M135.466 90.9951C122.54 78.397 101.858 78.6154 89.2593 91.5415C85.9994 94.8657 83.6265 98.7054 82.0644 102.806C81.7694 103.58 80.8142 103.884 80.1157 103.44C79.0864 102.785 78 102.21 76.8791 101.737C73.8934 100.353 70.5798 99.5884 67.0846 99.5884C54.0854 99.5884 43.5625 110.111 43.5625 123.11C43.5625 128.645 45.4923 133.743 48.6967 137.784C53.0295 143.465 59.8383 147.106 67.5215 147.106C76.7701 147.106 103.351 147.106 113.728 147.106C123.996 147.106 133.062 142.044 138.597 134.289C148.501 121.326 147.445 102.684 135.466 90.9951Z" fill="url(#paint19_radial_1526_3730)"/>
<defs>
<filter id="filter0_i_1526_3730" x="43.5625" y="80.6946" width="101.75" height="66.4109" filterUnits="userSpaceOnUse" color-interpolation-filters="sRGB">
<feFlood flood-opacity="0" result="BackgroundImageFix"/>
<feBlend mode="normal" in="SourceGraphic" in2="BackgroundImageFix" result="shape"/>
<feColorMatrix in="SourceAlpha" type="matrix" values="0 0 0 0 0 0 0 0 0 0 0 0 0 0 0 0 0 0 127 0" result="hardAlpha"/>
<feOffset dy="-1"/>
<feGaussianBlur stdDeviation="1"/>
<feComposite in2="hardAlpha" operator="arithmetic" k2="-1" k3="1"/>
<feColorMatrix type="matrix" values="0 0 0 0 0.815686 0 0 0 0 0.784314 0 0 0 0 0.956863 0 0 0 1 0"/>
<feBlend mode="normal" in2="shape" result="effect1_innerShadow_1526_3730"/>
</filter>
<linearGradient id="paint0_linear_1526_3730" x1="106.586" y1="40.3051" x2="38.6342" y2="127.002" gradientUnits="userSpaceOnUse">
<stop stop-color="#FC8B23"/>
<stop offset="1" stop-color="#E67639"/>
</linearGradient>
<radialGradient id="paint1_radial_1526_3730" cx="0" cy="0" r="1" gradientUnits="userSpaceOnUse" gradientTransform="translate(81.0901 25.1229) rotate(138.155) scale(16.7274 14.7587)">
<stop offset="0.300161" stop-color="#FFA13A"/>
<stop offset="1" stop-color="#FFA13A" stop-opacity="0"/>
</radialGradient>
<radialGradient id="paint2_radial_1526_3730" cx="0" cy="0" r="1" gradientUnits="userSpaceOnUse" gradientTransform="translate(37.5696 19.8423) rotate(67.8105) scale(26.5926 23.4629)">
<stop offset="0.300161" stop-color="#FF942A"/>
<stop offset="1" stop-color="#FF942A" stop-opacity="0"/>
</radialGradient>
<radialGradient id="paint3_radial_1526_3730" cx="0" cy="0" r="1" gradientUnits="userSpaceOnUse" gradientTransform="translate(108.988 44.6515) rotate(-164.745) scale(10.6028 14.681)">
<stop offset="0.300161" stop-color="#FFA13D"/>
<stop offset="1" stop-color="#FFA13D" stop-opacity="0"/>
</radialGradient>
<radialGradient id="paint4_radial_1526_3730" cx="0" cy="0" r="1" gradientUnits="userSpaceOnUse" gradientTransform="translate(130.377 60.0882) rotate(154.195) scale(18.7993 13.8847)">
<stop offset="0.300161" stop-color="#FFA13D"/>
<stop offset="1" stop-color="#FFA13D" stop-opacity="0"/>
</radialGradient>
<radialGradient id="paint5_radial_1526_3730" cx="0" cy="0" r="1" gradientUnits="userSpaceOnUse" gradientTransform="translate(134.468 91.8918) rotate(-173.379) scale(20.9703 11.8175)">
<stop offset="0.300161" stop-color="#FFA13D"/>
<stop offset="1" stop-color="#FFA13D" stop-opacity="0"/>
</radialGradient>
<radialGradient id="paint6_radial_1526_3730" cx="0" cy="0" r="1" gradientUnits="userSpaceOnUse" gradientTransform="translate(115.684 116.256) rotate(-43.9639) scale(19.0218 18.3253)">
<stop stop-color="#E0762A"/>
<stop offset="1" stop-color="#E0762A" stop-opacity="0"/>
</radialGradient>
<radialGradient id="paint7_radial_1526_3730" cx="0" cy="0" r="1" gradientUnits="userSpaceOnUse" gradientTransform="translate(27.5264 111.792) rotate(-127.747) scale(14.583 14.0491)">
<stop stop-color="#E0762A"/>
<stop offset="1" stop-color="#E0762A" stop-opacity="0"/>
</radialGradient>
<radialGradient id="paint8_radial_1526_3730" cx="0" cy="0" r="1" gradientUnits="userSpaceOnUse" gradientTransform="translate(7.62581 62.5062) rotate(25.2777) scale(14.809 17.8988)">
<stop stop-color="#F0851D"/>
<stop offset="1" stop-color="#F0851D" stop-opacity="0"/>
</radialGradient>
<radialGradient id="paint9_radial_1526_3730" cx="0" cy="0" r="1" gradientUnits="userSpaceOnUse" gradientTransform="translate(96.0234 137.377) rotate(-142.487) scale(17.2657 16.2887)">
<stop offset="0.336586" stop-color="#E3745B"/>
<stop offset="1" stop-color="#E3745B" stop-opacity="0"/>
</radialGradient>
<radialGradient id="paint10_radial_1526_3730" cx="0" cy="0" r="1" gradientUnits="userSpaceOnUse" gradientTransform="translate(96.6379 54.0296) rotate(117.739) scale(84.862 104.796)">
<stop offset="0.17178" stop-color="#FFD13D"/>
<stop offset="1" stop-color="#D89A29"/>
</radialGradient>
<radialGradient id="paint11_radial_1526_3730" cx="0" cy="0" r="1" gradientUnits="userSpaceOnUse" gradientTransform="translate(52.7467 108.963) rotate(-140.631) scale(29.6039 24.9943)">
<stop offset="0.340699" stop-color="#DCA225"/>
<stop offset="1" stop-color="#DCA225" stop-opacity="0"/>
</radialGradient>
<radialGradient id="paint12_radial_1526_3730" cx="0" cy="0" r="1" gradientUnits="userSpaceOnUse" gradientTransform="translate(108.495 73.4603) rotate(168.299) scale(101.277 85.5072)">
<stop offset="0.620449" stop-color="#DCA225" stop-opacity="0"/>
<stop offset="1" stop-color="#DCA225"/>
</radialGradient>
<radialGradient id="paint13_radial_1526_3730" cx="0" cy="0" r="1" gradientUnits="userSpaceOnUse" gradientTransform="translate(86.1392 100.247) rotate(-172.463) scale(20.1482 20.1482)">
<stop offset="0.308752" stop-color="#E8E8E9"/>
<stop offset="1" stop-color="#D2D2D2"/>
</radialGradient>
<radialGradient id="paint14_radial_1526_3730" cx="0" cy="0" r="1" gradientUnits="userSpaceOnUse" gradientTransform="translate(82.4153 104.452) rotate(-141.242) scale(10.9378 10.0215)">
<stop stop-color="#CDCDCE"/>
<stop offset="1" stop-color="#CDCDCE" stop-opacity="0"/>
</radialGradient>
<linearGradient id="paint15_linear_1526_3730" x1="104.832" y1="143.589" x2="104.832" y2="116.287" gradientUnits="userSpaceOnUse">
<stop stop-color="#DED7FA"/>
<stop offset="1" stop-color="#DED7FA" stop-opacity="0"/>
</linearGradient>
<radialGradient id="paint16_radial_1526_3730" cx="0" cy="0" r="1" gradientUnits="userSpaceOnUse" gradientTransform="translate(132.134 103.686) rotate(136.5) scale(40.5332 43.48)">
<stop offset="0.178875" stop-color="#FCFBFE"/>
<stop offset="1" stop-color="#FCFBFE" stop-opacity="0"/>
</radialGradient>
<radialGradient id="paint17_radial_1526_3730" cx="0" cy="0" r="1" gradientUnits="userSpaceOnUse" gradientTransform="translate(67.7598 119.228) rotate(144.444) scale(24.8668 26.0567)">
<stop stop-color="#FCFBFE"/>
<stop offset="1" stop-color="#FCFBFE" stop-opacity="0"/>
</radialGradient>
<radialGradient id="paint18_radial_1526_3730" cx="0" cy="0" r="1" gradientUnits="userSpaceOnUse" gradientTransform="translate(127.918 112.461) rotate(166.654) scale(86.6973 68.277)">
<stop offset="0.815422" stop-color="#CECCD7" stop-opacity="0"/>
<stop offset="1" stop-color="#CECCD7"/>
</radialGradient>
<radialGradient id="paint19_radial_1526_3730" cx="0" cy="0" r="1" gradientUnits="userSpaceOnUse" gradientTransform="translate(56.8057 150.805) rotate(-46.7899) scale(23.4878 32.4138)">
<stop stop-color="#D0C9EE"/>
<stop offset="1" stop-color="#D0C9EE" stop-opacity="0"/>
</radialGradient>
</defs>
</svg>
