<svg width="31" height="28" viewBox="0 0 31 28" fill="none" xmlns="http://www.w3.org/2000/svg">
<path d="M15.4989 27.9978C24.8333 27.9978 29.4978 21.7303 29.4978 13.9989C29.4978 6.26751 24.8333 0 15.4989 0C6.16443 0 1.5 6.26751 1.5 13.9989C1.5 21.7303 6.16443 27.9978 15.4989 27.9978Z" fill="url(#paint0_radial_1526_3816)"/>
<path d="M15.4989 27.9978C24.8333 27.9978 29.4978 21.7303 29.4978 13.9989C29.4978 6.26751 24.8333 0 15.4989 0C6.16443 0 1.5 6.26751 1.5 13.9989C1.5 21.7303 6.16443 27.9978 15.4989 27.9978Z" fill="url(#paint1_radial_1526_3816)"/>
<path d="M15.4989 27.9978C24.8333 27.9978 29.4978 21.7303 29.4978 13.9989C29.4978 6.26751 24.8333 0 15.4989 0C6.16443 0 1.5 6.26751 1.5 13.9989C1.5 21.7303 6.16443 27.9978 15.4989 27.9978Z" fill="url(#paint2_radial_1526_3816)"/>
<path d="M15.4989 27.9978C24.8333 27.9978 29.4978 21.7303 29.4978 13.9989C29.4978 6.26751 24.8333 0 15.4989 0C6.16443 0 1.5 6.26751 1.5 13.9989C1.5 21.7303 6.16443 27.9978 15.4989 27.9978Z" fill="url(#paint3_radial_1526_3816)" fill-opacity="0.6"/>
<path d="M15.4989 27.9978C24.8333 27.9978 29.4978 21.7303 29.4978 13.9989C29.4978 6.26751 24.8333 0 15.4989 0C6.16443 0 1.5 6.26751 1.5 13.9989C1.5 21.7303 6.16443 27.9978 15.4989 27.9978Z" fill="url(#paint4_radial_1526_3816)"/>
<path d="M15.4989 27.9978C24.8333 27.9978 29.4978 21.7303 29.4978 13.9989C29.4978 6.26751 24.8333 0 15.4989 0C6.16443 0 1.5 6.26751 1.5 13.9989C1.5 21.7303 6.16443 27.9978 15.4989 27.9978Z" fill="url(#paint5_radial_1526_3816)"/>
<path d="M15.4989 27.9978C24.8333 27.9978 29.4978 21.7303 29.4978 13.9989C29.4978 6.26751 24.8333 0 15.4989 0C6.16443 0 1.5 6.26751 1.5 13.9989C1.5 21.7303 6.16443 27.9978 15.4989 27.9978Z" fill="url(#paint6_radial_1526_3816)"/>
<path d="M15.4989 27.9978C24.8333 27.9978 29.4978 21.7303 29.4978 13.9989C29.4978 6.26751 24.8333 0 15.4989 0C6.16443 0 1.5 6.26751 1.5 13.9989C1.5 21.7303 6.16443 27.9978 15.4989 27.9978Z" fill="url(#paint7_radial_1526_3816)"/>
<path opacity="0.5" d="M7 21C10.5899 21 13.5 18.0899 13.5 14.5C13.5 10.9101 10.5899 8 7 8C3.41015 8 0.5 10.9101 0.5 14.5C0.5 18.0899 3.41015 21 7 21Z" fill="url(#paint8_radial_1526_3816)"/>
<path opacity="0.5" d="M24 21C27.5899 21 30.5 18.0899 30.5 14.5C30.5 10.9101 27.5899 8 24 8C20.4101 8 17.5 10.9101 17.5 14.5C17.5 18.0899 20.4101 21 24 21Z" fill="url(#paint9_radial_1526_3816)"/>
<g opacity="0.5" filter="url(#filter0_f_1526_3816)">
<path d="M7 11.5C7 11.5 7.25 9.5 9.5 9.5C11.75 9.5 12 11.5 12 11.5" stroke="#9A4609" stroke-width="2" stroke-linecap="round"/>
</g>
<g opacity="0.5" filter="url(#filter1_f_1526_3816)">
<path d="M18 11.5C18 11.5 18.5 9.5 20.5 9.5C22.5 9.5 23 11.5 23 11.5" stroke="#9A4609" stroke-width="2" stroke-linecap="round"/>
</g>
<path d="M7.5 11C7.5 11 7.75 9 10 9C12.25 9 12.5 11 12.5 11" stroke="#43273B" stroke-width="2" stroke-linecap="round" stroke-linejoin="round"/>
<g opacity="0.26" filter="url(#filter2_f_1526_3816)">
<path d="M7.75 10.75C7.75 10.75 8 8.75 10.25 8.75C12.5 8.75 12.75 10.75 12.75 10.75" stroke="white" stroke-width="0.75" stroke-linecap="round" stroke-linejoin="round"/>
</g>
<path d="M18.5 11C18.5 11 19 9 21 9C23 9 23.5 11 23.5 11" stroke="#43273B" stroke-width="2" stroke-linecap="round" stroke-linejoin="round"/>
<g opacity="0.26" filter="url(#filter3_f_1526_3816)">
<path d="M18.75 10.75C18.75 10.75 19 8.75 21.25 8.75C23.5 8.75 23.75 10.75 23.75 10.75" stroke="white" stroke-width="0.75" stroke-linecap="round" stroke-linejoin="round"/>
</g>
<path d="M6 7.5C6.33333 6.5 7.6 4.5 10 4.5" stroke="url(#paint10_linear_1526_3816)" stroke-linecap="round" stroke-linejoin="round"/>
<path d="M25 7.5C24.6667 6.5 23.4 4.5 21 4.5" stroke="url(#paint11_linear_1526_3816)" stroke-linecap="round" stroke-linejoin="round"/>
<path d="M9.5 17C10 17.6667 12 19.5 15.5 19.5C19 19.5 21 17.6667 21.5 17" stroke="url(#paint12_radial_1526_3816)" stroke-width="2" stroke-linecap="round"/>
<defs>
<filter id="filter0_f_1526_3816" x="4.5" y="7" width="10" height="7" filterUnits="userSpaceOnUse" color-interpolation-filters="sRGB">
<feFlood flood-opacity="0" result="BackgroundImageFix"/>
<feBlend mode="normal" in="SourceGraphic" in2="BackgroundImageFix" result="shape"/>
<feGaussianBlur stdDeviation="0.75" result="effect1_foregroundBlur_1526_3816"/>
</filter>
<filter id="filter1_f_1526_3816" x="15.5" y="7" width="10" height="7.00024" filterUnits="userSpaceOnUse" color-interpolation-filters="sRGB">
<feFlood flood-opacity="0" result="BackgroundImageFix"/>
<feBlend mode="normal" in="SourceGraphic" in2="BackgroundImageFix" result="shape"/>
<feGaussianBlur stdDeviation="0.75" result="effect1_foregroundBlur_1526_3816"/>
</filter>
<filter id="filter2_f_1526_3816" x="5.875" y="6.875" width="8.75" height="5.75" filterUnits="userSpaceOnUse" color-interpolation-filters="sRGB">
<feFlood flood-opacity="0" result="BackgroundImageFix"/>
<feBlend mode="normal" in="SourceGraphic" in2="BackgroundImageFix" result="shape"/>
<feGaussianBlur stdDeviation="0.75" result="effect1_foregroundBlur_1526_3816"/>
</filter>
<filter id="filter3_f_1526_3816" x="16.875" y="6.875" width="8.75" height="5.75" filterUnits="userSpaceOnUse" color-interpolation-filters="sRGB">
<feFlood flood-opacity="0" result="BackgroundImageFix"/>
<feBlend mode="normal" in="SourceGraphic" in2="BackgroundImageFix" result="shape"/>
<feGaussianBlur stdDeviation="0.75" result="effect1_foregroundBlur_1526_3816"/>
</filter>
<radialGradient id="paint0_radial_1526_3816" cx="0" cy="0" r="1" gradientUnits="userSpaceOnUse" gradientTransform="translate(25 7) rotate(132.839) scale(37.5033)">
<stop stop-color="#FFF478"/>
<stop offset="0.474827" stop-color="#FFB02E"/>
<stop offset="1" stop-color="#F70A8D"/>
</radialGradient>
<radialGradient id="paint1_radial_1526_3816" cx="0" cy="0" r="1" gradientUnits="userSpaceOnUse" gradientTransform="translate(25 7) rotate(131.878) scale(38.9487)">
<stop stop-color="#FFF478"/>
<stop offset="0.474827" stop-color="#FFB02E"/>
<stop offset="1" stop-color="#F70A8D"/>
</radialGradient>
<radialGradient id="paint2_radial_1526_3816" cx="0" cy="0" r="1" gradientUnits="userSpaceOnUse" gradientTransform="translate(15.5 10.5) rotate(101.31) scale(17.8466 22.8581)">
<stop offset="0.787821" stop-color="#F59639" stop-opacity="0"/>
<stop offset="0.972509" stop-color="#FF7DCE"/>
</radialGradient>
<radialGradient id="paint3_radial_1526_3816" cx="0" cy="0" r="1" gradientUnits="userSpaceOnUse" gradientTransform="translate(17.5 12) rotate(135) scale(41.0122)">
<stop offset="0.314853" stop-opacity="0"/>
<stop offset="1"/>
</radialGradient>
<radialGradient id="paint4_radial_1526_3816" cx="0" cy="0" r="1" gradientUnits="userSpaceOnUse" gradientTransform="translate(15.5 15) rotate(77.692) scale(28.1469)">
<stop offset="0.507903" stop-color="#7D6133" stop-opacity="0"/>
<stop offset="1" stop-color="#715B32"/>
</radialGradient>
<radialGradient id="paint5_radial_1526_3816" cx="0" cy="0" r="1" gradientUnits="userSpaceOnUse" gradientTransform="translate(16 14.5) rotate(55.7131) scale(13.3135 9.65032)">
<stop stop-color="#FFB849"/>
<stop offset="1" stop-color="#FFB847" stop-opacity="0"/>
</radialGradient>
<radialGradient id="paint6_radial_1526_3816" cx="0" cy="0" r="1" gradientUnits="userSpaceOnUse" gradientTransform="translate(20 16) rotate(9.86581) scale(11.6726)">
<stop stop-color="#FFA64B"/>
<stop offset="0.900412" stop-color="#FFAE46" stop-opacity="0"/>
</radialGradient>
<radialGradient id="paint7_radial_1526_3816" cx="0" cy="0" r="1" gradientUnits="userSpaceOnUse" gradientTransform="translate(17 13) rotate(43.9708) scale(59.0529)">
<stop offset="0.185425" stop-opacity="0"/>
<stop offset="1" stop-opacity="0.4"/>
</radialGradient>
<radialGradient id="paint8_radial_1526_3816" cx="0" cy="0" r="1" gradientUnits="userSpaceOnUse" gradientTransform="translate(7.00513 14.5012) scale(6.49487)">
<stop stop-color="#F70A8D" stop-opacity="0.59"/>
<stop offset="1" stop-color="#FF6DC6" stop-opacity="0"/>
</radialGradient>
<radialGradient id="paint9_radial_1526_3816" cx="0" cy="0" r="1" gradientUnits="userSpaceOnUse" gradientTransform="translate(24.0051 14.5012) scale(6.49487)">
<stop stop-color="#F70A8D" stop-opacity="0.59"/>
<stop offset="1" stop-color="#FF6DC6" stop-opacity="0"/>
</radialGradient>
<linearGradient id="paint10_linear_1526_3816" x1="6.33333" y1="8.4" x2="6.33333" y2="6.6" gradientUnits="userSpaceOnUse">
<stop offset="0.0299084" stop-color="#524049"/>
<stop offset="1" stop-color="#4A2C42"/>
</linearGradient>
<linearGradient id="paint11_linear_1526_3816" x1="24.6667" y1="8.4" x2="24.6667" y2="6.6" gradientUnits="userSpaceOnUse">
<stop offset="0.0299084" stop-color="#524049"/>
<stop offset="1" stop-color="#4A2C42"/>
</linearGradient>
<radialGradient id="paint12_radial_1526_3816" cx="0" cy="0" r="1" gradientUnits="userSpaceOnUse" gradientTransform="translate(17.3737 14.9194) rotate(90) scale(11.4895)">
<stop offset="0.10265" stop-color="#482641"/>
<stop offset="0.298574" stop-color="#503A4A"/>
<stop offset="0.555606" stop-color="#483637"/>
</radialGradient>
</defs>
</svg>
