<svg width="33" height="32" viewBox="0 0 33 32" fill="none" xmlns="http://www.w3.org/2000/svg">
<g filter="url(#filter0_i_1526_3918)">
<path d="M16.4989 29.9978C25.8333 29.9978 30.4978 23.7303 30.4978 15.9989C30.4978 8.26751 25.8333 2 16.4989 2C7.16443 2 2.5 8.26751 2.5 15.9989C2.5 23.7303 7.16443 29.9978 16.4989 29.9978Z" fill="url(#paint0_radial_1526_3918)"/>
</g>
<path d="M16.4989 29.9978C25.8333 29.9978 30.4978 23.7303 30.4978 15.9989C30.4978 8.26751 25.8333 2 16.4989 2C7.16443 2 2.5 8.26751 2.5 15.9989C2.5 23.7303 7.16443 29.9978 16.4989 29.9978Z" fill="url(#paint1_radial_1526_3918)"/>
<path d="M16.4989 29.9978C25.8333 29.9978 30.4978 23.7303 30.4978 15.9989C30.4978 8.26751 25.8333 2 16.4989 2C7.16443 2 2.5 8.26751 2.5 15.9989C2.5 23.7303 7.16443 29.9978 16.4989 29.9978Z" fill="url(#paint2_radial_1526_3918)"/>
<g opacity="0.9" filter="url(#filter1_f_1526_3918)">
<path style="mix-blend-mode:multiply" d="M23.0146 7.48731L23.0146 7.48732C22.4354 8.06656 22.4354 9.0057 23.0146 9.58495L24.9521 11.5225C25.5314 12.1017 26.4705 12.1017 27.0498 11.5224L27.0498 11.5224C27.629 10.9432 27.629 10.0041 27.0498 9.42481L25.1123 7.48731C24.533 6.90806 23.5939 6.90806 23.0146 7.48731Z" fill="url(#paint3_radial_1526_3918)"/>
</g>
<path d="M8.5 22.5C8.5 21.1193 7.38071 20 6 20C4.61929 20 3.5 21.1193 3.5 22.5V24.5C3.5 25.8807 4.61929 27 6 27C7.38071 27 8.5 25.8807 8.5 24.5V22.5Z" fill="url(#paint4_radial_1526_3918)"/>
<path d="M30.5 6.5C30.5 5.11929 29.3807 4 28 4C26.6193 4 25.5 5.11929 25.5 6.5V8.5C25.5 9.88071 26.6193 11 28 11C29.3807 11 30.5 9.88071 30.5 8.5V6.5Z" fill="url(#paint5_radial_1526_3918)"/>
<g filter="url(#filter2_f_1526_3918)">
<path style="mix-blend-mode:multiply" fill-rule="evenodd" clip-rule="evenodd" d="M8.94893 11.9111C8.90746 11.5684 9.15165 11.257 9.49433 11.2155C10.7119 11.0682 11.3098 10.493 11.6218 9.99059C11.7844 9.72886 11.8763 9.474 11.9271 9.28523C11.9523 9.19152 11.9668 9.11623 11.9747 9.0675C11.9786 9.0432 11.9809 9.02575 11.982 9.01617L11.9829 9.00813C12.0127 8.66624 12.313 8.412 12.6556 8.43954C12.9997 8.4672 13.2562 8.76854 13.2285 9.11261L12.6055 9.06253C13.2285 9.11261 13.2285 9.11224 13.2285 9.11261L13.2284 9.11412L13.2283 9.11587L13.2279 9.12005L13.2268 9.1311C13.226 9.13964 13.2248 9.15053 13.2233 9.16363C13.2202 9.18981 13.2155 9.22489 13.2085 9.26771C13.1947 9.35319 13.1717 9.47041 13.1342 9.60985C13.0596 9.88739 12.9251 10.2615 12.6837 10.6501C12.1878 11.4485 11.2677 12.2601 9.64448 12.4565C9.3018 12.4979 8.99039 12.2538 8.94893 11.9111Z" fill="url(#paint6_radial_1526_3918)" fill-opacity="0.75"/>
</g>
<path d="M11.8662 8.4375C11.8662 8.4375 11.8662 11.0781 8.94434 11.3281" stroke="url(#paint7_radial_1526_3918)" stroke-width="1.25" stroke-linecap="round" stroke-linejoin="round"/>
<g filter="url(#filter3_f_1526_3918)">
<path style="mix-blend-mode:multiply" fill-rule="evenodd" clip-rule="evenodd" d="M24.3129 11.9111C24.3544 11.5684 24.1102 11.257 23.7675 11.2155C22.55 11.0682 21.952 10.493 21.64 9.99059C21.4774 9.72886 21.3855 9.474 21.3347 9.28523C21.3095 9.19152 21.2951 9.11623 21.2872 9.0675C21.2832 9.0432 21.2809 9.02575 21.2798 9.01617L21.2789 9.00813C21.2491 8.66624 20.9488 8.412 20.6062 8.43954C20.2621 8.4672 20.0056 8.76854 20.0333 9.11261L20.6563 9.06253C20.0333 9.11261 20.0332 9.11224 20.0333 9.11261L20.0334 9.11412L20.0336 9.11587L20.0339 9.12005L20.035 9.1311C20.0358 9.13964 20.037 9.15053 20.0385 9.16363C20.0416 9.18981 20.0463 9.22489 20.0533 9.26771C20.0672 9.35319 20.0901 9.47041 20.1276 9.60985C20.2023 9.88739 20.3367 10.2615 20.5781 10.6501C21.074 11.4485 21.9941 12.2601 23.6174 12.4565C23.9601 12.4979 24.2715 12.2538 24.3129 11.9111Z" fill="url(#paint8_radial_1526_3918)" fill-opacity="0.75"/>
</g>
<path d="M21.1318 8.4375C21.1318 8.4375 21.1318 11.0781 24.0537 11.3281" stroke="url(#paint9_radial_1526_3918)" stroke-width="1.25" stroke-linecap="round" stroke-linejoin="round"/>
<g filter="url(#filter4_f_1526_3918)">
<path d="M19.8697 13.4531C18.6157 14.1118 17.7617 15.4175 17.7617 16.9207C17.7617 19.0874 19.536 20.8437 21.7246 20.8437C23.9133 20.8437 25.6875 19.0874 25.6875 16.9207C25.6875 15.7652 25.1828 14.7264 24.3798 14.0084C23.858 14.1773 23.2995 14.2687 22.719 14.2687C21.6681 14.2687 20.6896 13.969 19.8697 13.4531Z" fill="#FB6E27" fill-opacity="0.75"/>
</g>
<g filter="url(#filter5_f_1526_3918)">
<path d="M12.4018 13.4531C13.6557 14.1118 14.5097 15.4175 14.5097 16.9207C14.5097 19.0874 12.7355 20.8437 10.5468 20.8437C8.35823 20.8437 6.58398 19.0874 6.58398 16.9207C6.58398 15.7652 7.08865 14.7264 7.89169 14.0084C8.41352 14.1773 8.97198 14.2687 9.55249 14.2687C10.6033 14.2687 11.5818 13.969 12.4018 13.4531Z" fill="#B24B35"/>
</g>
<path d="M20.0141 12.4531C18.6742 13.1641 17.7617 14.5735 17.7617 16.1959C17.7617 18.5345 19.6575 20.4303 21.9961 20.4303C24.3347 20.4303 26.2305 18.5345 26.2305 16.1959C26.2305 14.9487 25.6912 13.8274 24.8332 13.0525C24.2756 13.2347 23.6789 13.3335 23.0586 13.3335C21.9358 13.3335 20.8902 13.01 20.0141 12.4531Z" fill="white"/>
<path d="M20.4414 18.2192C21.5201 18.2192 22.3945 17.3448 22.3945 16.2661C22.3945 15.1874 21.5201 14.313 20.4414 14.313C19.3627 14.313 18.4883 15.1874 18.4883 16.2661C18.4883 17.3448 19.3627 18.2192 20.4414 18.2192Z" fill="#402931"/>
<path d="M12.9839 12.4531C14.3238 13.1641 15.2363 14.5735 15.2363 16.1959C15.2363 18.5345 13.3405 20.4303 11.0019 20.4303C8.66338 20.4303 6.76758 18.5345 6.76758 16.1959C6.76758 14.9487 7.30682 13.8274 8.16488 13.0525C8.72246 13.2347 9.31917 13.3335 9.93946 13.3335C11.0622 13.3335 12.1078 13.01 12.9839 12.4531Z" fill="white"/>
<path d="M12.5566 18.2192C11.478 18.2192 10.6035 17.3448 10.6035 16.2661C10.6035 15.1874 11.478 14.313 12.5566 14.313C13.6353 14.313 14.5098 15.1874 14.5098 16.2661C14.5098 17.3448 13.6353 18.2192 12.5566 18.2192Z" fill="#402931"/>
<path d="M17.6756 20.9531H15.3225C13.7761 20.9531 12.5225 22.2067 12.5225 23.7531V23.8406C12.5225 25.387 13.7761 26.6406 15.3225 26.6406H17.6756C19.222 26.6406 20.4756 25.387 20.4756 23.8406V23.7531C20.4756 22.2067 19.222 20.9531 17.6756 20.9531Z" fill="url(#paint10_linear_1526_3918)"/>
<path d="M16.5003 28.4999C19.5485 28.4999 20.0347 25.8557 20.1291 25.0936C20.2016 24.4767 19.875 23.7607 19.5194 23.5502C19.1638 23.3398 18.097 23.1438 16.5003 23.1438C14.9037 23.1438 13.8441 23.3398 13.4812 23.5502C13.1183 23.7607 12.7917 24.4767 12.8715 25.0936C12.9659 25.8557 13.4521 28.4999 16.5003 28.4999Z" fill="url(#paint11_radial_1526_3918)"/>
<g opacity="0.5" filter="url(#filter6_f_1526_3918)">
<path d="M17.9404 26.6856C18.6661 26.3227 19.3919 25.5969 19.3919 24.5083" stroke="white"/>
</g>
<defs>
<filter id="filter0_i_1526_3918" x="2.5" y="0" width="29.998" height="29.9978" filterUnits="userSpaceOnUse" color-interpolation-filters="sRGB">
<feFlood flood-opacity="0" result="BackgroundImageFix"/>
<feBlend mode="normal" in="SourceGraphic" in2="BackgroundImageFix" result="shape"/>
<feColorMatrix in="SourceAlpha" type="matrix" values="0 0 0 0 0 0 0 0 0 0 0 0 0 0 0 0 0 0 127 0" result="hardAlpha"/>
<feOffset dx="2" dy="-2"/>
<feGaussianBlur stdDeviation="2"/>
<feComposite in2="hardAlpha" operator="arithmetic" k2="-1" k3="1"/>
<feColorMatrix type="matrix" values="0 0 0 0 0 0 0 0 0 0 0 0 0 0 0 0 0 0 0.08 0"/>
<feBlend mode="normal" in2="shape" result="effect1_innerShadow_1526_3918"/>
</filter>
<filter id="filter1_f_1526_3918" x="21.5801" y="6.05298" width="6.9043" height="6.90381" filterUnits="userSpaceOnUse" color-interpolation-filters="sRGB">
<feFlood flood-opacity="0" result="BackgroundImageFix"/>
<feBlend mode="normal" in="SourceGraphic" in2="BackgroundImageFix" result="shape"/>
<feGaussianBlur stdDeviation="0.5" result="effect1_foregroundBlur_1526_3918"/>
</filter>
<filter id="filter2_f_1526_3918" x="8.44434" y="7.9375" width="5.28613" height="5.02344" filterUnits="userSpaceOnUse" color-interpolation-filters="sRGB">
<feFlood flood-opacity="0" result="BackgroundImageFix"/>
<feBlend mode="normal" in="SourceGraphic" in2="BackgroundImageFix" result="shape"/>
<feGaussianBlur stdDeviation="0.25" result="effect1_foregroundBlur_1526_3918"/>
</filter>
<filter id="filter3_f_1526_3918" x="19.5312" y="7.9375" width="5.28613" height="5.02344" filterUnits="userSpaceOnUse" color-interpolation-filters="sRGB">
<feFlood flood-opacity="0" result="BackgroundImageFix"/>
<feBlend mode="normal" in="SourceGraphic" in2="BackgroundImageFix" result="shape"/>
<feGaussianBlur stdDeviation="0.25" result="effect1_foregroundBlur_1526_3918"/>
</filter>
<filter id="filter4_f_1526_3918" x="15.7617" y="11.4531" width="11.9258" height="11.3906" filterUnits="userSpaceOnUse" color-interpolation-filters="sRGB">
<feFlood flood-opacity="0" result="BackgroundImageFix"/>
<feBlend mode="normal" in="SourceGraphic" in2="BackgroundImageFix" result="shape"/>
<feGaussianBlur stdDeviation="1" result="effect1_foregroundBlur_1526_3918"/>
</filter>
<filter id="filter5_f_1526_3918" x="4.58398" y="11.4531" width="11.9258" height="11.3906" filterUnits="userSpaceOnUse" color-interpolation-filters="sRGB">
<feFlood flood-opacity="0" result="BackgroundImageFix"/>
<feBlend mode="normal" in="SourceGraphic" in2="BackgroundImageFix" result="shape"/>
<feGaussianBlur stdDeviation="1" result="effect1_foregroundBlur_1526_3918"/>
</filter>
<filter id="filter6_f_1526_3918" x="16.7168" y="23.5083" width="4.1748" height="4.62451" filterUnits="userSpaceOnUse" color-interpolation-filters="sRGB">
<feFlood flood-opacity="0" result="BackgroundImageFix"/>
<feBlend mode="normal" in="SourceGraphic" in2="BackgroundImageFix" result="shape"/>
<feGaussianBlur stdDeviation="0.5" result="effect1_foregroundBlur_1526_3918"/>
</filter>
<radialGradient id="paint0_radial_1526_3918" cx="0" cy="0" r="1" gradientUnits="userSpaceOnUse" gradientTransform="translate(26 9) rotate(132.839) scale(37.5033)">
<stop stop-color="#FFF478"/>
<stop offset="0.474827" stop-color="#FFB02E"/>
<stop offset="1" stop-color="#F70A8D"/>
</radialGradient>
<radialGradient id="paint1_radial_1526_3918" cx="0" cy="0" r="1" gradientUnits="userSpaceOnUse" gradientTransform="translate(16.5 12.5) rotate(90) scale(17.8854)">
<stop offset="0.823911" stop-color="#F59639" stop-opacity="0"/>
<stop offset="1" stop-color="#FF63C4"/>
</radialGradient>
<radialGradient id="paint2_radial_1526_3918" cx="0" cy="0" r="1" gradientUnits="userSpaceOnUse" gradientTransform="translate(16.4989 35.1875) rotate(-90) scale(30.6875 67.5153)">
<stop offset="0.34375" stop-color="#F59639" stop-opacity="0"/>
<stop offset="1" stop-color="#E73550"/>
</radialGradient>
<radialGradient id="paint3_radial_1526_3918" cx="0" cy="0" r="1" gradientUnits="userSpaceOnUse" gradientTransform="translate(24.2099 8.88493) rotate(50.5885) scale(6.42037 2.27261)">
<stop stop-color="#993D29"/>
<stop offset="1" stop-color="#B14B35" stop-opacity="0"/>
</radialGradient>
<radialGradient id="paint4_radial_1526_3918" cx="0" cy="0" r="1" gradientUnits="userSpaceOnUse" gradientTransform="translate(7.66667 20.3182) rotate(108.861) scale(7.73342 3.61978)">
<stop stop-color="#5C98FF"/>
<stop offset="0.805982" stop-color="#3D5BF1"/>
<stop offset="0.962238" stop-color="#6065CA"/>
</radialGradient>
<radialGradient id="paint5_radial_1526_3918" cx="0" cy="0" r="1" gradientUnits="userSpaceOnUse" gradientTransform="translate(29.6667 4.31818) rotate(108.861) scale(7.73342 3.61978)">
<stop stop-color="#5C98FF"/>
<stop offset="0.805982" stop-color="#3D5BF1"/>
<stop offset="0.962238" stop-color="#6065CA"/>
</radialGradient>
<radialGradient id="paint6_radial_1526_3918" cx="0" cy="0" r="1" gradientUnits="userSpaceOnUse" gradientTransform="translate(11.2942 11.1683) rotate(-78.6614) scale(4.595 3.23495)">
<stop offset="0.255208" stop-color="#993D29"/>
<stop offset="1" stop-color="#B14B35" stop-opacity="0"/>
</radialGradient>
<radialGradient id="paint7_radial_1526_3918" cx="0" cy="0" r="1" gradientUnits="userSpaceOnUse" gradientTransform="translate(9.56934 9.875) rotate(49.8812) scale(4.02522 9.57068)">
<stop offset="0.137915" stop-color="#694F62"/>
<stop offset="0.398102" stop-color="#482641"/>
</radialGradient>
<radialGradient id="paint8_radial_1526_3918" cx="0" cy="0" r="1" gradientUnits="userSpaceOnUse" gradientTransform="translate(21.9677 11.1683) rotate(-101.339) scale(4.595 3.23495)">
<stop offset="0.255208" stop-color="#993D29"/>
<stop offset="1" stop-color="#B14B35" stop-opacity="0"/>
</radialGradient>
<radialGradient id="paint9_radial_1526_3918" cx="0" cy="0" r="1" gradientUnits="userSpaceOnUse" gradientTransform="translate(23.4287 9.875) rotate(130.119) scale(4.02522 9.57068)">
<stop offset="0.137915" stop-color="#694F62"/>
<stop offset="0.398102" stop-color="#482641"/>
</radialGradient>
<linearGradient id="paint10_linear_1526_3918" x1="16.4991" y1="20.9531" x2="16.4991" y2="26.6406" gradientUnits="userSpaceOnUse">
<stop stop-color="#6D014D"/>
<stop offset="1" stop-color="#750C3F"/>
</linearGradient>
<radialGradient id="paint11_radial_1526_3918" cx="0" cy="0" r="1" gradientUnits="userSpaceOnUse" gradientTransform="translate(16.4891 29.4061) rotate(-90) scale(7.07513 12.2996)">
<stop offset="0.135417" stop-color="#FF1C4A"/>
<stop offset="0.619792" stop-color="#FF2B8F"/>
<stop offset="0.755208" stop-color="#BB0773"/>
<stop offset="0.869792" stop-color="#9F0762"/>
</radialGradient>
</defs>
</svg>
