<svg width="33" height="32" viewBox="0 0 33 32" fill="none" xmlns="http://www.w3.org/2000/svg">
<g clip-path="url(#clip0_1526_3886)">
<mask id="mask0_1526_3886" style="mask-type:luminance" maskUnits="userSpaceOnUse" x="0" y="0" width="33" height="32">
<path d="M32.5 0H0.5V32H32.5V0Z" fill="white"/>
</mask>
<g mask="url(#mask0_1526_3886)">
<path d="M16.4989 29.9978C25.8333 29.9978 30.4978 23.7303 30.4978 15.9989C30.4978 8.26751 25.8333 2 16.4989 2C7.16443 2 2.5 8.26751 2.5 15.9989C2.5 23.7303 7.16443 29.9978 16.4989 29.9978Z" fill="url(#paint0_radial_1526_3886)"/>
<path d="M16.4989 29.9978C25.8333 29.9978 30.4978 23.7303 30.4978 15.9989C30.4978 8.26751 25.8333 2 16.4989 2C7.16443 2 2.5 8.26751 2.5 15.9989C2.5 23.7303 7.16443 29.9978 16.4989 29.9978Z" fill="url(#paint1_radial_1526_3886)"/>
<path d="M16.4989 29.9978C25.8333 29.9978 30.4978 23.7303 30.4978 15.9989C30.4978 8.26751 25.8333 2 16.4989 2C7.16443 2 2.5 8.26751 2.5 15.9989C2.5 23.7303 7.16443 29.9978 16.4989 29.9978Z" fill="url(#paint2_radial_1526_3886)"/>
<path d="M16.4989 29.9978C25.8333 29.9978 30.4978 23.7303 30.4978 15.9989C30.4978 8.26751 25.8333 2 16.4989 2C7.16443 2 2.5 8.26751 2.5 15.9989C2.5 23.7303 7.16443 29.9978 16.4989 29.9978Z" fill="url(#paint3_radial_1526_3886)" fill-opacity="0.6"/>
<path d="M16.4989 29.9978C25.8333 29.9978 30.4978 23.7303 30.4978 15.9989C30.4978 8.26751 25.8333 2 16.4989 2C7.16443 2 2.5 8.26751 2.5 15.9989C2.5 23.7303 7.16443 29.9978 16.4989 29.9978Z" fill="url(#paint4_radial_1526_3886)"/>
<path d="M16.4989 29.9978C25.8333 29.9978 30.4978 23.7303 30.4978 15.9989C30.4978 8.26751 25.8333 2 16.4989 2C7.16443 2 2.5 8.26751 2.5 15.9989C2.5 23.7303 7.16443 29.9978 16.4989 29.9978Z" fill="url(#paint5_radial_1526_3886)"/>
<path d="M16.4989 29.9978C25.8333 29.9978 30.4978 23.7303 30.4978 15.9989C30.4978 8.26751 25.8333 2 16.4989 2C7.16443 2 2.5 8.26751 2.5 15.9989C2.5 23.7303 7.16443 29.9978 16.4989 29.9978Z" fill="url(#paint6_radial_1526_3886)"/>
<path d="M16.4989 29.9978C25.8333 29.9978 30.4978 23.7303 30.4978 15.9989C30.4978 8.26751 25.8333 2 16.4989 2C7.16443 2 2.5 8.26751 2.5 15.9989C2.5 23.7303 7.16443 29.9978 16.4989 29.9978Z" fill="url(#paint7_radial_1526_3886)"/>
<g opacity="0.5" filter="url(#filter0_f_1526_3886)">
<path d="M8 13.5C8 13.5 8.25 11.5 10.5 11.5C12.75 11.5 13 13.5 13 13.5" stroke="#9A4609" stroke-width="2" stroke-linecap="round"/>
</g>
<g opacity="0.5" filter="url(#filter1_f_1526_3886)">
<path d="M19 13.5C19 13.5 19.5 11.5 21.5 11.5C23.5 11.5 24 13.5 24 13.5" stroke="#9A4609" stroke-width="2" stroke-linecap="round"/>
</g>
<path d="M8.5 13C8.5 13 8.75 11 11 11C13.25 11 13.5 13 13.5 13" stroke="#43273B" stroke-width="2" stroke-linecap="round" stroke-linejoin="round"/>
<g opacity="0.26" filter="url(#filter2_f_1526_3886)">
<path d="M8.75 12.75C8.75 12.75 9 10.75 11.25 10.75C13.5 10.75 13.75 12.75 13.75 12.75" stroke="white" stroke-width="0.75" stroke-linecap="round" stroke-linejoin="round"/>
</g>
<path d="M19.5 13C19.5 13 20 11 22 11C24 11 24.5 13 24.5 13" stroke="#43273B" stroke-width="2" stroke-linecap="round" stroke-linejoin="round"/>
<g opacity="0.26" filter="url(#filter3_f_1526_3886)">
<path d="M19.75 12.75C19.75 12.75 20 10.75 22.25 10.75C24.5 10.75 24.75 12.75 24.75 12.75" stroke="white" stroke-width="0.75" stroke-linecap="round" stroke-linejoin="round"/>
</g>
<path d="M7 10.5C7.33333 9.5 8.6 7.5 11 7.5" stroke="url(#paint8_linear_1526_3886)" stroke-linecap="round" stroke-linejoin="round"/>
<path d="M26 10.5C25.6667 9.5 24.4 7.5 22 7.5" stroke="url(#paint9_linear_1526_3886)" stroke-linecap="round" stroke-linejoin="round"/>
<path d="M12.1202 21.5H18.6002L20.2202 24.4028V31.1074L12.1201 29L12.1202 21.5Z" fill="url(#paint10_radial_1526_3886)"/>
<path d="M16.5 25C9.5 25 9.5 18 9.5 18H23.5C23.5 18 23.5 25 16.5 25Z" fill="url(#paint11_radial_1526_3886)"/>
<path fill-rule="evenodd" clip-rule="evenodd" d="M10.6504 22C11.6003 23.5684 13.3343 25 16.4999 25C19.6656 25 21.3996 23.5684 22.3495 22H10.6504Z" fill="url(#paint12_linear_1526_3886)"/>
<path fill-rule="evenodd" clip-rule="evenodd" d="M10.6504 22C11.6003 23.5684 13.3343 25 16.4999 25C19.6656 25 21.3996 23.5684 22.3495 22H10.6504Z" fill="url(#paint13_radial_1526_3886)"/>
<path fill-rule="evenodd" clip-rule="evenodd" d="M16.5 23.5V25.25C16.5 25.6642 16.8358 26 17.25 26H17.3333C17.7015 26 18 26.2985 18 26.6667V26.75C18 27.4404 18.5596 28 19.25 28C19.9404 28 20.5 27.4404 20.5 26.75V23.9372C21.3204 23.4017 21.9165 22.7151 22.3496 22H20.5H19.5H18C17.1716 22 16.5 22.6716 16.5 23.5Z" fill="url(#paint14_radial_1526_3886)"/>
</g>
</g>
<defs>
<filter id="filter0_f_1526_3886" x="5.5" y="9" width="10" height="7" filterUnits="userSpaceOnUse" color-interpolation-filters="sRGB">
<feFlood flood-opacity="0" result="BackgroundImageFix"/>
<feBlend mode="normal" in="SourceGraphic" in2="BackgroundImageFix" result="shape"/>
<feGaussianBlur stdDeviation="0.75" result="effect1_foregroundBlur_1526_3886"/>
</filter>
<filter id="filter1_f_1526_3886" x="16.5" y="9" width="10" height="7.00024" filterUnits="userSpaceOnUse" color-interpolation-filters="sRGB">
<feFlood flood-opacity="0" result="BackgroundImageFix"/>
<feBlend mode="normal" in="SourceGraphic" in2="BackgroundImageFix" result="shape"/>
<feGaussianBlur stdDeviation="0.75" result="effect1_foregroundBlur_1526_3886"/>
</filter>
<filter id="filter2_f_1526_3886" x="6.875" y="8.875" width="8.75" height="5.75" filterUnits="userSpaceOnUse" color-interpolation-filters="sRGB">
<feFlood flood-opacity="0" result="BackgroundImageFix"/>
<feBlend mode="normal" in="SourceGraphic" in2="BackgroundImageFix" result="shape"/>
<feGaussianBlur stdDeviation="0.75" result="effect1_foregroundBlur_1526_3886"/>
</filter>
<filter id="filter3_f_1526_3886" x="17.875" y="8.875" width="8.75" height="5.75" filterUnits="userSpaceOnUse" color-interpolation-filters="sRGB">
<feFlood flood-opacity="0" result="BackgroundImageFix"/>
<feBlend mode="normal" in="SourceGraphic" in2="BackgroundImageFix" result="shape"/>
<feGaussianBlur stdDeviation="0.75" result="effect1_foregroundBlur_1526_3886"/>
</filter>
<radialGradient id="paint0_radial_1526_3886" cx="0" cy="0" r="1" gradientUnits="userSpaceOnUse" gradientTransform="translate(26 9) rotate(132.839) scale(37.5033)">
<stop stop-color="#FFF478"/>
<stop offset="0.474827" stop-color="#FFB02E"/>
<stop offset="1" stop-color="#F70A8D"/>
</radialGradient>
<radialGradient id="paint1_radial_1526_3886" cx="0" cy="0" r="1" gradientUnits="userSpaceOnUse" gradientTransform="translate(26 9) rotate(131.878) scale(38.9487)">
<stop stop-color="#FFF478"/>
<stop offset="0.474827" stop-color="#FFB02E"/>
<stop offset="1" stop-color="#F70A8D"/>
</radialGradient>
<radialGradient id="paint2_radial_1526_3886" cx="0" cy="0" r="1" gradientUnits="userSpaceOnUse" gradientTransform="translate(16.5 12.5) rotate(101.31) scale(17.8466 22.8581)">
<stop offset="0.787821" stop-color="#F59639" stop-opacity="0"/>
<stop offset="0.972509" stop-color="#FF7DCE"/>
</radialGradient>
<radialGradient id="paint3_radial_1526_3886" cx="0" cy="0" r="1" gradientUnits="userSpaceOnUse" gradientTransform="translate(18.5 14) rotate(135) scale(41.0122)">
<stop offset="0.314853" stop-opacity="0"/>
<stop offset="1"/>
</radialGradient>
<radialGradient id="paint4_radial_1526_3886" cx="0" cy="0" r="1" gradientUnits="userSpaceOnUse" gradientTransform="translate(16.5 17) rotate(77.692) scale(28.1469)">
<stop offset="0.507903" stop-color="#7D6133" stop-opacity="0"/>
<stop offset="1" stop-color="#715B32"/>
</radialGradient>
<radialGradient id="paint5_radial_1526_3886" cx="0" cy="0" r="1" gradientUnits="userSpaceOnUse" gradientTransform="translate(17 16.5) rotate(55.7131) scale(13.3135 9.65032)">
<stop stop-color="#FFB849"/>
<stop offset="1" stop-color="#FFB847" stop-opacity="0"/>
</radialGradient>
<radialGradient id="paint6_radial_1526_3886" cx="0" cy="0" r="1" gradientUnits="userSpaceOnUse" gradientTransform="translate(21 18) rotate(9.86581) scale(11.6726)">
<stop stop-color="#FFA64B"/>
<stop offset="0.900412" stop-color="#FFAE46" stop-opacity="0"/>
</radialGradient>
<radialGradient id="paint7_radial_1526_3886" cx="0" cy="0" r="1" gradientUnits="userSpaceOnUse" gradientTransform="translate(18 15) rotate(43.9708) scale(59.0529)">
<stop offset="0.185425" stop-opacity="0"/>
<stop offset="1" stop-opacity="0.4"/>
</radialGradient>
<linearGradient id="paint8_linear_1526_3886" x1="7.33333" y1="11.4" x2="7.33333" y2="9.6" gradientUnits="userSpaceOnUse">
<stop offset="0.0299084" stop-color="#524049"/>
<stop offset="1" stop-color="#4A2C42"/>
</linearGradient>
<linearGradient id="paint9_linear_1526_3886" x1="25.6667" y1="11.4" x2="25.6667" y2="9.6" gradientUnits="userSpaceOnUse">
<stop offset="0.0299084" stop-color="#524049"/>
<stop offset="1" stop-color="#4A2C42"/>
</linearGradient>
<radialGradient id="paint10_radial_1526_3886" cx="0" cy="0" r="1" gradientUnits="userSpaceOnUse" gradientTransform="translate(20.2202 21.5) rotate(128.191) scale(7.63403 5.15729)">
<stop stop-color="#C20AA5"/>
<stop offset="1" stop-color="#C20A78" stop-opacity="0"/>
</radialGradient>
<radialGradient id="paint11_radial_1526_3886" cx="0" cy="0" r="1" gradientUnits="userSpaceOnUse" gradientTransform="translate(16.5 25.5) rotate(-90) scale(7.5 15)">
<stop stop-color="#F70A8D"/>
<stop offset="1" stop-color="#89029C"/>
</radialGradient>
<linearGradient id="paint12_linear_1526_3886" x1="16.4999" y1="22" x2="16.4999" y2="25" gradientUnits="userSpaceOnUse">
<stop stop-color="#2962F3"/>
<stop offset="0.160122" stop-color="#3E7AFF"/>
<stop offset="0.253876" stop-color="#4588FF"/>
<stop offset="0.535137" stop-color="#4170FF"/>
<stop offset="1" stop-color="#3E69FF"/>
</linearGradient>
<radialGradient id="paint13_radial_1526_3886" cx="0" cy="0" r="1" gradientUnits="userSpaceOnUse" gradientTransform="translate(16.4999 23.5) rotate(90) scale(3 1.74841)">
<stop stop-color="#323FFF"/>
<stop offset="1" stop-color="#323FFF" stop-opacity="0"/>
</radialGradient>
<radialGradient id="paint14_radial_1526_3886" cx="0" cy="0" r="1" gradientUnits="userSpaceOnUse" gradientTransform="translate(24 26) rotate(-172.405) scale(7.56637 7.8168)">
<stop offset="0.408311" stop-color="#325CFF"/>
<stop offset="0.574014" stop-color="#4889FF"/>
<stop offset="0.739718" stop-color="#3C6BF7"/>
<stop offset="0.899655" stop-color="#3F72FF"/>
<stop offset="1" stop-color="#3156FE"/>
</radialGradient>
<clipPath id="clip0_1526_3886">
<rect width="32" height="32" fill="white" transform="translate(0.5)"/>
</clipPath>
</defs>
</svg>
