<svg width="33" height="32" viewBox="0 0 33 32" fill="none" xmlns="http://www.w3.org/2000/svg">
<path d="M16.4989 29.9978C25.8333 29.9978 30.4978 23.7303 30.4978 15.9989C30.4978 8.26751 25.8333 2 16.4989 2C7.16443 2 2.5 8.26751 2.5 15.9989C2.5 23.7303 7.16443 29.9978 16.4989 29.9978Z" fill="url(#paint0_radial_1526_3947)"/>
<path d="M16.4989 29.9978C25.8333 29.9978 30.4978 23.7303 30.4978 15.9989C30.4978 8.26751 25.8333 2 16.4989 2C7.16443 2 2.5 8.26751 2.5 15.9989C2.5 23.7303 7.16443 29.9978 16.4989 29.9978Z" fill="url(#paint1_radial_1526_3947)"/>
<path d="M16.4989 29.9978C25.8333 29.9978 30.4978 23.7303 30.4978 15.9989C30.4978 8.26751 25.8333 2 16.4989 2C7.16443 2 2.5 8.26751 2.5 15.9989C2.5 23.7303 7.16443 29.9978 16.4989 29.9978Z" fill="url(#paint2_radial_1526_3947)"/>
<path d="M16.4989 29.9978C25.8333 29.9978 30.4978 23.7303 30.4978 15.9989C30.4978 8.26751 25.8333 2 16.4989 2C7.16443 2 2.5 8.26751 2.5 15.9989C2.5 23.7303 7.16443 29.9978 16.4989 29.9978Z" fill="url(#paint3_radial_1526_3947)" fill-opacity="0.6"/>
<path d="M16.4989 29.9978C25.8333 29.9978 30.4978 23.7303 30.4978 15.9989C30.4978 8.26751 25.8333 2 16.4989 2C7.16443 2 2.5 8.26751 2.5 15.9989C2.5 23.7303 7.16443 29.9978 16.4989 29.9978Z" fill="url(#paint4_radial_1526_3947)"/>
<path d="M16.4989 29.9978C25.8333 29.9978 30.4978 23.7303 30.4978 15.9989C30.4978 8.26751 25.8333 2 16.4989 2C7.16443 2 2.5 8.26751 2.5 15.9989C2.5 23.7303 7.16443 29.9978 16.4989 29.9978Z" fill="url(#paint5_radial_1526_3947)"/>
<path d="M16.4989 29.9978C25.8333 29.9978 30.4978 23.7303 30.4978 15.9989C30.4978 8.26751 25.8333 2 16.4989 2C7.16443 2 2.5 8.26751 2.5 15.9989C2.5 23.7303 7.16443 29.9978 16.4989 29.9978Z" fill="url(#paint6_radial_1526_3947)"/>
<path d="M16.4989 29.9978C25.8333 29.9978 30.4978 23.7303 30.4978 15.9989C30.4978 8.26751 25.8333 2 16.4989 2C7.16443 2 2.5 8.26751 2.5 15.9989C2.5 23.7303 7.16443 29.9978 16.4989 29.9978Z" fill="url(#paint7_radial_1526_3947)"/>
<path d="M17.498 11.5006C17.498 13.9861 19.513 16.0011 21.9986 16.0011C24.4842 16.0011 26.4991 13.9861 26.4991 11.5006C26.4991 9.01497 24.4842 7 21.9986 7C19.513 7 17.498 9.01497 17.498 11.5006Z" fill="white"/>
<path d="M15.4991 11.5006C15.4991 13.9861 13.4842 16.0011 10.9986 16.0011C8.51302 16.0011 6.49805 13.9861 6.49805 11.5006C6.49805 9.01497 8.51302 7 10.9986 7C13.4842 7 15.4991 9.01497 15.4991 11.5006Z" fill="white"/>
<path d="M11.6202 14.6908C13.3931 14.6908 14.8304 13.2535 14.8304 11.4806C14.8304 9.70773 13.3931 8.27051 11.6202 8.27051C9.84738 8.27051 8.41016 9.70773 8.41016 11.4806C8.41016 13.2535 9.84738 14.6908 11.6202 14.6908Z" fill="#3F2931"/>
<path d="M21.3772 14.6908C19.6043 14.6908 18.167 13.2535 18.167 11.4806C18.167 9.70773 19.6043 8.27051 21.3772 8.27051C23.1501 8.27051 24.5873 9.70773 24.5873 11.4806C24.5873 13.2535 23.1501 14.6908 21.3772 14.6908Z" fill="#3F2931"/>
<path d="M21.0692 17.8434L11.4213 20.5323C10.9184 20.6725 10.6244 21.1938 10.7645 21.6967C10.9047 22.1996 11.426 22.4937 11.9289 22.3535L21.5768 19.6646C22.0797 19.5244 22.3738 19.0031 22.2336 18.5002C22.0934 17.9973 21.5721 17.7032 21.0692 17.8434Z" fill="url(#paint8_linear_1526_3947)"/>
<path d="M21.0692 17.8434L11.4213 20.5323C10.9184 20.6725 10.6244 21.1938 10.7645 21.6967C10.9047 22.1996 11.426 22.4937 11.9289 22.3535L21.5768 19.6646C22.0797 19.5244 22.3738 19.0031 22.2336 18.5002C22.0934 17.9973 21.5721 17.7032 21.0692 17.8434Z" fill="url(#paint9_linear_1526_3947)"/>
<path d="M21.0692 17.8434L11.4213 20.5323C10.9184 20.6725 10.6244 21.1938 10.7645 21.6967C10.9047 22.1996 11.426 22.4937 11.9289 22.3535L21.5768 19.6646C22.0797 19.5244 22.3738 19.0031 22.2336 18.5002C22.0934 17.9973 21.5721 17.7032 21.0692 17.8434Z" fill="url(#paint10_radial_1526_3947)"/>
<g filter="url(#filter0_f_1526_3947)">
<path d="M11.6553 21.2632L21.4205 18.5415" stroke="#5C4B51" stroke-width="0.3"/>
</g>
<defs>
<filter id="filter0_f_1526_3947" x="11.0152" y="17.797" width="11.0457" height="4.21074" filterUnits="userSpaceOnUse" color-interpolation-filters="sRGB">
<feFlood flood-opacity="0" result="BackgroundImageFix"/>
<feBlend mode="normal" in="SourceGraphic" in2="BackgroundImageFix" result="shape"/>
<feGaussianBlur stdDeviation="0.3" result="effect1_foregroundBlur_1526_3947"/>
</filter>
<radialGradient id="paint0_radial_1526_3947" cx="0" cy="0" r="1" gradientUnits="userSpaceOnUse" gradientTransform="translate(26 9) rotate(132.839) scale(37.5033)">
<stop stop-color="#FFF478"/>
<stop offset="0.474827" stop-color="#FFB02E"/>
<stop offset="1" stop-color="#F70A8D"/>
</radialGradient>
<radialGradient id="paint1_radial_1526_3947" cx="0" cy="0" r="1" gradientUnits="userSpaceOnUse" gradientTransform="translate(26 9) rotate(131.878) scale(38.9487)">
<stop stop-color="#FFF478"/>
<stop offset="0.474827" stop-color="#FFB02E"/>
<stop offset="1" stop-color="#F70A8D"/>
</radialGradient>
<radialGradient id="paint2_radial_1526_3947" cx="0" cy="0" r="1" gradientUnits="userSpaceOnUse" gradientTransform="translate(16.5 12.5) rotate(101.31) scale(17.8466 22.8581)">
<stop offset="0.787821" stop-color="#F59639" stop-opacity="0"/>
<stop offset="0.972509" stop-color="#FF7DCE"/>
</radialGradient>
<radialGradient id="paint3_radial_1526_3947" cx="0" cy="0" r="1" gradientUnits="userSpaceOnUse" gradientTransform="translate(18.5 14) rotate(135) scale(41.0122)">
<stop offset="0.314853" stop-opacity="0"/>
<stop offset="1"/>
</radialGradient>
<radialGradient id="paint4_radial_1526_3947" cx="0" cy="0" r="1" gradientUnits="userSpaceOnUse" gradientTransform="translate(16.5 17) rotate(77.692) scale(28.1469)">
<stop offset="0.507903" stop-color="#7D6133" stop-opacity="0"/>
<stop offset="1" stop-color="#715B32"/>
</radialGradient>
<radialGradient id="paint5_radial_1526_3947" cx="0" cy="0" r="1" gradientUnits="userSpaceOnUse" gradientTransform="translate(17 16.5) rotate(55.7131) scale(13.3135 9.65032)">
<stop stop-color="#FFB849"/>
<stop offset="1" stop-color="#FFB847" stop-opacity="0"/>
</radialGradient>
<radialGradient id="paint6_radial_1526_3947" cx="0" cy="0" r="1" gradientUnits="userSpaceOnUse" gradientTransform="translate(21 18) rotate(9.86581) scale(11.6726)">
<stop stop-color="#FFA64B"/>
<stop offset="0.900412" stop-color="#FFAE46" stop-opacity="0"/>
</radialGradient>
<radialGradient id="paint7_radial_1526_3947" cx="0" cy="0" r="1" gradientUnits="userSpaceOnUse" gradientTransform="translate(18 15) rotate(43.9708) scale(59.0529)">
<stop offset="0.185425" stop-opacity="0"/>
<stop offset="1" stop-opacity="0.4"/>
</radialGradient>
<linearGradient id="paint8_linear_1526_3947" x1="16.2453" y1="19.1879" x2="16.6858" y2="20.7683" gradientUnits="userSpaceOnUse">
<stop stop-color="#4B383A"/>
<stop offset="1" stop-color="#53265D"/>
</linearGradient>
<linearGradient id="paint9_linear_1526_3947" x1="10.7645" y1="21.6967" x2="11.8482" y2="21.3947" gradientUnits="userSpaceOnUse">
<stop stop-color="#503333"/>
<stop offset="1" stop-color="#503333" stop-opacity="0"/>
</linearGradient>
<radialGradient id="paint10_radial_1526_3947" cx="0" cy="0" r="1" gradientUnits="userSpaceOnUse" gradientTransform="translate(22.1531 18.022) rotate(144.953) scale(1.5746 1.22898)">
<stop stop-color="#605052"/>
<stop offset="1" stop-color="#605052" stop-opacity="0"/>
</radialGradient>
</defs>
</svg>
