<svg width="33" height="32" viewBox="0 0 33 32" fill="none" xmlns="http://www.w3.org/2000/svg">
<path d="M16 30C25.0018 30 29.5 23.9558 29.5 16.5C29.5 9.04416 25.0018 3 16 3C6.99821 3 2.5 9.04416 2.5 16.5C2.5 23.9558 6.99821 30 16 30Z" fill="url(#paint0_radial_1526_3863)"/>
<path d="M16 30C25.0018 30 29.5 23.9558 29.5 16.5C29.5 9.04416 25.0018 3 16 3C6.99821 3 2.5 9.04416 2.5 16.5C2.5 23.9558 6.99821 30 16 30Z" fill="url(#paint1_radial_1526_3863)"/>
<path d="M16 30C25.0018 30 29.5 23.9558 29.5 16.5C29.5 9.04416 25.0018 3 16 3C6.99821 3 2.5 9.04416 2.5 16.5C2.5 23.9558 6.99821 30 16 30Z" fill="url(#paint2_radial_1526_3863)"/>
<path d="M16 30C25.0018 30 29.5 23.9558 29.5 16.5C29.5 9.04416 25.0018 3 16 3C6.99821 3 2.5 9.04416 2.5 16.5C2.5 23.9558 6.99821 30 16 30Z" fill="url(#paint3_radial_1526_3863)" fill-opacity="0.6"/>
<path d="M16 30C25.0018 30 29.5 23.9558 29.5 16.5C29.5 9.04416 25.0018 3 16 3C6.99821 3 2.5 9.04416 2.5 16.5C2.5 23.9558 6.99821 30 16 30Z" fill="url(#paint4_radial_1526_3863)"/>
<path d="M16 30C25.0018 30 29.5 23.9558 29.5 16.5C29.5 9.04416 25.0018 3 16 3C6.99821 3 2.5 9.04416 2.5 16.5C2.5 23.9558 6.99821 30 16 30Z" fill="url(#paint5_radial_1526_3863)"/>
<path d="M16 30C25.0018 30 29.5 23.9558 29.5 16.5C29.5 9.04416 25.0018 3 16 3C6.99821 3 2.5 9.04416 2.5 16.5C2.5 23.9558 6.99821 30 16 30Z" fill="url(#paint6_radial_1526_3863)"/>
<path d="M16 30C25.0018 30 29.5 23.9558 29.5 16.5C29.5 9.04416 25.0018 3 16 3C6.99821 3 2.5 9.04416 2.5 16.5C2.5 23.9558 6.99821 30 16 30Z" fill="url(#paint7_radial_1526_3863)"/>
<path d="M8 23C10.4853 23 12.5 20.9853 12.5 18.5C12.5 16.0147 10.4853 14 8 14C5.51472 14 3.5 16.0147 3.5 18.5C3.5 20.9853 5.51472 23 8 23Z" fill="url(#paint8_radial_1526_3863)"/>
<path fill-rule="evenodd" clip-rule="evenodd" d="M14.5 13.5C14.5 15.433 12.933 17 11 17C9.06701 17 7.5 15.433 7.5 13.5C7.5 11.567 9.06701 10 11 10C12.933 10 14.5 11.567 14.5 13.5ZM23.5 13.5C23.5 15.433 21.933 17 20 17C18.067 17 16.5 15.433 16.5 13.5C16.5 11.567 18.067 10 20 10C21.933 10 23.5 11.567 23.5 13.5Z" fill="white"/>
<path fill-rule="evenodd" clip-rule="evenodd" d="M14 13.5C14 14.8807 12.8807 16 11.5 16C10.1193 16 9 14.8807 9 13.5C9 12.1193 10.1193 11 11.5 11C12.8807 11 14 12.1193 14 13.5ZM22 13.5C22 14.8807 20.8807 16 19.5 16C18.1193 16 17 14.8807 17 13.5C17 12.1193 18.1193 11 19.5 11C20.8807 11 22 12.1193 22 13.5Z" fill="#402A32"/>
<path fill-rule="evenodd" clip-rule="evenodd" d="M12 7C12.2761 7 12.5 7.22386 12.5 7.5C12.5 8.63568 12.0691 9.52418 11.3947 10.1237C10.7294 10.7151 9.85654 11 9 11C8.72386 11 8.5 10.7761 8.5 10.5C8.5 10.2239 8.72386 10 9 10C9.64346 10 10.2706 9.78495 10.7303 9.3763C11.1809 8.97582 11.5 8.36432 11.5 7.5C11.5 7.22386 11.7239 7 12 7Z" fill="#402A32"/>
<path fill-rule="evenodd" clip-rule="evenodd" d="M20 7C19.7239 7 19.5 7.22386 19.5 7.5C19.5 8.63568 19.9309 9.52418 20.6053 10.1237C21.2706 10.7151 22.1435 11 23 11C23.2761 11 23.5 10.7761 23.5 10.5C23.5 10.2239 23.2761 10 23 10C22.3565 10 21.7294 9.78495 21.2697 9.3763C20.8191 8.97582 20.5 8.36432 20.5 7.5C20.5 7.22386 20.2761 7 20 7Z" fill="#402A32"/>
<path fill-rule="evenodd" clip-rule="evenodd" d="M29.6536 17.6338C30.556 16.9968 30.7712 15.7489 30.1342 14.8465C29.4972 13.9441 28.2493 13.729 27.3469 14.3659L18.8469 20.3659C18.6022 20.5387 18.408 20.7564 18.2676 20.9999H19.5002C20.6048 20.9999 21.5002 21.8953 21.5002 22.9999V23.3891L29.6536 17.6338Z" fill="url(#paint9_linear_1526_3863)"/>
<path fill-rule="evenodd" clip-rule="evenodd" d="M29.0764 16.817C29.5276 16.4985 29.6352 15.8745 29.3167 15.4233C28.9982 14.9721 28.3742 14.8646 27.923 15.1831L19.6719 21.0073C20.4416 21.073 21.0868 21.5745 21.3599 22.2639L29.0764 16.817Z" fill="url(#paint10_linear_1526_3863)"/>
<path d="M9.5 22.5C9.5 22.5 11.5 20 15.5 20C19.5 20 21.5 22.5 21.5 22.5" stroke="#402A32" stroke-width="2" stroke-linecap="round" stroke-linejoin="round"/>
<path fill-rule="evenodd" clip-rule="evenodd" d="M21.3428 18.6039L22.1095 19.5622C22.282 19.7779 22.5966 19.8128 22.8123 19.6403C23.0279 19.4678 23.0629 19.1532 22.8904 18.9375L22.1612 18.0261L21.3428 18.6039Z" fill="#212121"/>
<path fill-rule="evenodd" clip-rule="evenodd" d="M24.9918 16.0283L24.1748 16.605L24.8431 17.5407C25.0036 17.7654 25.3158 17.8174 25.5406 17.6569C25.7653 17.4964 25.8173 17.1842 25.6568 16.9595L24.9918 16.0283Z" fill="#212121"/>
<path fill-rule="evenodd" clip-rule="evenodd" d="M26.8096 14.7453L27.6005 15.7999C27.7662 16.0208 28.0796 16.0656 28.3005 15.8999C28.5214 15.7342 28.5662 15.4208 28.4005 15.1999L27.6445 14.1919C27.5422 14.2405 27.4427 14.2984 27.3471 14.3659L26.8096 14.7453Z" fill="#212121"/>
<defs>
<radialGradient id="paint0_radial_1526_3863" cx="0" cy="0" r="1" gradientUnits="userSpaceOnUse" gradientTransform="translate(25.1625 9.75054) rotate(132.839) scale(36.1668)">
<stop stop-color="#FFF478"/>
<stop offset="0.474827" stop-color="#FFB02E"/>
<stop offset="1" stop-color="#F70A8D"/>
</radialGradient>
<radialGradient id="paint1_radial_1526_3863" cx="0" cy="0" r="1" gradientUnits="userSpaceOnUse" gradientTransform="translate(25.1625 9.75054) rotate(131.878) scale(37.5607)">
<stop stop-color="#FFF478"/>
<stop offset="0.474827" stop-color="#FFB02E"/>
<stop offset="1" stop-color="#F70A8D"/>
</radialGradient>
<radialGradient id="paint2_radial_1526_3863" cx="0" cy="0" r="1" gradientUnits="userSpaceOnUse" gradientTransform="translate(16.0011 13.1258) rotate(101.31) scale(17.2106 22.0435)">
<stop offset="0.787821" stop-color="#F59639" stop-opacity="0"/>
<stop offset="0.972509" stop-color="#FF7DCE"/>
</radialGradient>
<radialGradient id="paint3_radial_1526_3863" cx="0" cy="0" r="1" gradientUnits="userSpaceOnUse" gradientTransform="translate(17.9298 14.5724) rotate(135) scale(39.5506)">
<stop offset="0.314853" stop-opacity="0"/>
<stop offset="1"/>
</radialGradient>
<radialGradient id="paint4_radial_1526_3863" cx="0" cy="0" r="1" gradientUnits="userSpaceOnUse" gradientTransform="translate(16.0011 17.4654) rotate(77.692) scale(27.1439)">
<stop offset="0.507903" stop-color="#7D6133" stop-opacity="0"/>
<stop offset="1" stop-color="#715B32"/>
</radialGradient>
<radialGradient id="paint5_radial_1526_3863" cx="0" cy="0" r="1" gradientUnits="userSpaceOnUse" gradientTransform="translate(16.4833 16.9833) rotate(55.7131) scale(12.8391 9.30641)">
<stop stop-color="#FFB849"/>
<stop offset="1" stop-color="#FFB847" stop-opacity="0"/>
</radialGradient>
<radialGradient id="paint6_radial_1526_3863" cx="0" cy="0" r="1" gradientUnits="userSpaceOnUse" gradientTransform="translate(20.3407 18.4298) rotate(9.86581) scale(11.2566)">
<stop stop-color="#FFA64B"/>
<stop offset="0.900412" stop-color="#FFAE46" stop-opacity="0"/>
</radialGradient>
<radialGradient id="paint7_radial_1526_3863" cx="0" cy="0" r="1" gradientUnits="userSpaceOnUse" gradientTransform="translate(17.4476 15.5367) rotate(43.9708) scale(56.9485)">
<stop offset="0.185425" stop-opacity="0"/>
<stop offset="1" stop-opacity="0.4"/>
</radialGradient>
<radialGradient id="paint8_radial_1526_3863" cx="0" cy="0" r="1" gradientUnits="userSpaceOnUse" gradientTransform="translate(8.00355 18.5008) scale(4.49645)">
<stop stop-color="#FA666E"/>
<stop offset="1" stop-color="#FF6DC6" stop-opacity="0"/>
</radialGradient>
<linearGradient id="paint9_linear_1526_3863" x1="24.0003" y1="16.4999" x2="26.5003" y2="19.9999" gradientUnits="userSpaceOnUse">
<stop stop-color="#BCABBB"/>
<stop offset="0.301039" stop-color="#EFEAF4"/>
<stop offset="1" stop-color="#DDA8FF"/>
</linearGradient>
<linearGradient id="paint10_linear_1526_3863" x1="22.9997" y1="16.5" x2="25.4997" y2="20.5" gradientUnits="userSpaceOnUse">
<stop offset="0.245799" stop-color="#F5243E"/>
<stop offset="0.936305" stop-color="#FF20C9"/>
</linearGradient>
</defs>
</svg>
