<svg width="29" height="28" viewBox="0 0 29 28" fill="none" xmlns="http://www.w3.org/2000/svg">
<path d="M14.4989 27.9978C23.8333 27.9978 28.4978 21.7303 28.4978 13.9989C28.4978 6.26751 23.8333 0 14.4989 0C5.16443 0 0.5 6.26751 0.5 13.9989C0.5 21.7303 5.16443 27.9978 14.4989 27.9978Z" fill="url(#paint0_radial_1526_3846)"/>
<path d="M14.4989 27.9978C23.8333 27.9978 28.4978 21.7303 28.4978 13.9989C28.4978 6.26751 23.8333 0 14.4989 0C5.16443 0 0.5 6.26751 0.5 13.9989C0.5 21.7303 5.16443 27.9978 14.4989 27.9978Z" fill="url(#paint1_radial_1526_3846)"/>
<path d="M14.4989 27.9978C23.8333 27.9978 28.4978 21.7303 28.4978 13.9989C28.4978 6.26751 23.8333 0 14.4989 0C5.16443 0 0.5 6.26751 0.5 13.9989C0.5 21.7303 5.16443 27.9978 14.4989 27.9978Z" fill="url(#paint2_radial_1526_3846)"/>
<path d="M14.4989 27.9978C23.8333 27.9978 28.4978 21.7303 28.4978 13.9989C28.4978 6.26751 23.8333 0 14.4989 0C5.16443 0 0.5 6.26751 0.5 13.9989C0.5 21.7303 5.16443 27.9978 14.4989 27.9978Z" fill="url(#paint3_radial_1526_3846)" fill-opacity="0.6"/>
<path d="M14.4989 27.9978C23.8333 27.9978 28.4978 21.7303 28.4978 13.9989C28.4978 6.26751 23.8333 0 14.4989 0C5.16443 0 0.5 6.26751 0.5 13.9989C0.5 21.7303 5.16443 27.9978 14.4989 27.9978Z" fill="url(#paint4_radial_1526_3846)"/>
<path d="M14.4989 27.9978C23.8333 27.9978 28.4978 21.7303 28.4978 13.9989C28.4978 6.26751 23.8333 0 14.4989 0C5.16443 0 0.5 6.26751 0.5 13.9989C0.5 21.7303 5.16443 27.9978 14.4989 27.9978Z" fill="url(#paint5_radial_1526_3846)"/>
<path d="M14.4989 27.9978C23.8333 27.9978 28.4978 21.7303 28.4978 13.9989C28.4978 6.26751 23.8333 0 14.4989 0C5.16443 0 0.5 6.26751 0.5 13.9989C0.5 21.7303 5.16443 27.9978 14.4989 27.9978Z" fill="url(#paint6_radial_1526_3846)"/>
<path d="M14.4989 27.9978C23.8333 27.9978 28.4978 21.7303 28.4978 13.9989C28.4978 6.26751 23.8333 0 14.4989 0C5.16443 0 0.5 6.26751 0.5 13.9989C0.5 21.7303 5.16443 27.9978 14.4989 27.9978Z" fill="url(#paint7_radial_1526_3846)"/>
<path d="M5.5 13C5.5 13 6.5 14 8.5 14C10.5 14 11.5 13 11.5 13" stroke="url(#paint8_linear_1526_3846)" stroke-width="2" stroke-linecap="round" stroke-linejoin="round"/>
<path d="M17.5 13C17.5 13 18.5 14 20.5 14C22.5 14 23.5 13 23.5 13" stroke="url(#paint9_linear_1526_3846)" stroke-width="2" stroke-linecap="round" stroke-linejoin="round"/>
<path d="M5 8.5C5.33333 7.5 6.6 5.5 9 5.5" stroke="url(#paint10_linear_1526_3846)" stroke-linecap="round" stroke-linejoin="round"/>
<path d="M24 8.5C23.6667 7.5 22.4 5.5 20 5.5" stroke="url(#paint11_linear_1526_3846)" stroke-linecap="round" stroke-linejoin="round"/>
<path d="M19.4018 23.0064C19.5109 23.5478 19.0521 24 18.4998 24C15.4306 24 13.2173 24 10.5007 24C9.94849 24 9.49009 23.5478 9.59919 23.0064C10.06 20.721 12.0793 19 14.5005 19C16.9217 19 18.941 20.721 19.4018 23.0064Z" fill="url(#paint12_radial_1526_3846)"/>
<path d="M15.5 17C15.5 16.4477 15.9477 16 16.5 16H19C20.933 16 22.5 17.567 22.5 19.5C22.5 21.433 20.933 23 19 23C17.067 23 15.5 21.433 15.5 19.5V17Z" fill="url(#paint13_radial_1526_3846)"/>
<defs>
<radialGradient id="paint0_radial_1526_3846" cx="0" cy="0" r="1" gradientUnits="userSpaceOnUse" gradientTransform="translate(24 7) rotate(132.839) scale(37.5033)">
<stop stop-color="#FFF478"/>
<stop offset="0.474827" stop-color="#FFB02E"/>
<stop offset="1" stop-color="#F70A8D"/>
</radialGradient>
<radialGradient id="paint1_radial_1526_3846" cx="0" cy="0" r="1" gradientUnits="userSpaceOnUse" gradientTransform="translate(24 7) rotate(131.878) scale(38.9487)">
<stop stop-color="#FFF478"/>
<stop offset="0.474827" stop-color="#FFB02E"/>
<stop offset="1" stop-color="#F70A8D"/>
</radialGradient>
<radialGradient id="paint2_radial_1526_3846" cx="0" cy="0" r="1" gradientUnits="userSpaceOnUse" gradientTransform="translate(14.5 10.5) rotate(101.31) scale(17.8466 22.8581)">
<stop offset="0.787821" stop-color="#F59639" stop-opacity="0"/>
<stop offset="0.972509" stop-color="#FF7DCE"/>
</radialGradient>
<radialGradient id="paint3_radial_1526_3846" cx="0" cy="0" r="1" gradientUnits="userSpaceOnUse" gradientTransform="translate(16.5 12) rotate(135) scale(41.0122)">
<stop offset="0.314853" stop-opacity="0"/>
<stop offset="1"/>
</radialGradient>
<radialGradient id="paint4_radial_1526_3846" cx="0" cy="0" r="1" gradientUnits="userSpaceOnUse" gradientTransform="translate(14.5 15) rotate(77.692) scale(28.1469)">
<stop offset="0.507903" stop-color="#7D6133" stop-opacity="0"/>
<stop offset="1" stop-color="#715B32"/>
</radialGradient>
<radialGradient id="paint5_radial_1526_3846" cx="0" cy="0" r="1" gradientUnits="userSpaceOnUse" gradientTransform="translate(15 14.5) rotate(55.7131) scale(13.3135 9.65032)">
<stop stop-color="#FFB849"/>
<stop offset="1" stop-color="#FFB847" stop-opacity="0"/>
</radialGradient>
<radialGradient id="paint6_radial_1526_3846" cx="0" cy="0" r="1" gradientUnits="userSpaceOnUse" gradientTransform="translate(19 16) rotate(9.86581) scale(11.6726)">
<stop stop-color="#FFA64B"/>
<stop offset="0.900412" stop-color="#FFAE46" stop-opacity="0"/>
</radialGradient>
<radialGradient id="paint7_radial_1526_3846" cx="0" cy="0" r="1" gradientUnits="userSpaceOnUse" gradientTransform="translate(16 13) rotate(43.9708) scale(59.0529)">
<stop offset="0.185425" stop-opacity="0"/>
<stop offset="1" stop-opacity="0.4"/>
</radialGradient>
<linearGradient id="paint8_linear_1526_3846" x1="9.7" y1="12.75" x2="9.4649" y2="14.1608" gradientUnits="userSpaceOnUse">
<stop stop-color="#52383E"/>
<stop offset="1" stop-color="#432A35"/>
</linearGradient>
<linearGradient id="paint9_linear_1526_3846" x1="21.7" y1="12.75" x2="21.4649" y2="14.1608" gradientUnits="userSpaceOnUse">
<stop stop-color="#52383E"/>
<stop offset="1" stop-color="#432A35"/>
</linearGradient>
<linearGradient id="paint10_linear_1526_3846" x1="5.33333" y1="9.4" x2="5.33333" y2="7.6" gradientUnits="userSpaceOnUse">
<stop offset="0.0299084" stop-color="#524049"/>
<stop offset="1" stop-color="#4A2C42"/>
</linearGradient>
<linearGradient id="paint11_linear_1526_3846" x1="23.6667" y1="9.4" x2="23.6667" y2="7.6" gradientUnits="userSpaceOnUse">
<stop offset="0.0299084" stop-color="#524049"/>
<stop offset="1" stop-color="#4A2C42"/>
</linearGradient>
<radialGradient id="paint12_radial_1526_3846" cx="0" cy="0" r="1" gradientUnits="userSpaceOnUse" gradientTransform="translate(14.5005 25.1111) rotate(-90) scale(7.61111 15.2222)">
<stop stop-color="#F70A8D"/>
<stop offset="1" stop-color="#89029C"/>
</radialGradient>
<radialGradient id="paint13_radial_1526_3846" cx="0" cy="0" r="1" gradientUnits="userSpaceOnUse" gradientTransform="translate(20.5 18) rotate(135) scale(4.94975)">
<stop stop-color="#5495FF"/>
<stop offset="1" stop-color="#3758FF"/>
</radialGradient>
</defs>
</svg>
